<svg width="72" height="72" viewBox="0 0 72 72" fill="none" xmlns="http://www.w3.org/2000/svg">
<path d="M0 13.5C0 6.04416 6.04416 0 13.5 0H58.5C65.9558 0 72 6.04416 72 13.5V58.5C72 65.9558 65.9558 72 58.5 72H13.5C6.04416 72 0 65.9558 0 58.5V13.5Z" fill="#FF444F"/>
<path d="M13.5 0C6.04416 0 0 6.04416 0 13.5V13.8921L67.3075 3.26845C64.9433 1.2315 61.8655 0 58.5 0H13.5Z" fill="#E12E3A"/>
<path d="M68.6969 4.65243L56.3498 71.9999L58.5 72C65.9558 72 72 65.9558 72 58.5V13.5C72 10.1155 70.7545 7.02183 68.6969 4.65243Z" fill="#E12E3A"/>
<path d="M18.086 25.8649C21.1085 25.8649 23.429 26.4011 25.0475 27.4736C26.666 28.5266 27.4752 30.2621 27.4752 32.6801C27.4752 35.1176 26.6562 36.8824 25.0182 37.9744C23.3802 39.0469 21.0402 39.5831 17.9982 39.5831H16.565V46.3691H12.002V26.3914C12.9965 26.1964 14.0495 26.0599 15.161 25.9819C16.2725 25.9039 17.2475 25.8649 18.086 25.8649ZM18.3785 29.7551C18.047 29.7551 17.7155 29.7649 17.384 29.7844C17.072 29.8039 16.799 29.8234 16.565 29.8429V35.6929H17.9982C19.5777 35.6929 20.7672 35.4784 21.5667 35.0494C22.3662 34.6204 22.766 33.8209 22.766 32.6509C22.766 32.0854 22.6587 31.6174 22.4442 31.2469C22.2492 30.8764 21.9567 30.5839 21.5667 30.3694C21.1962 30.1354 20.738 29.9794 20.192 29.9014C19.646 29.8039 19.0415 29.7551 18.3785 29.7551Z" fill="white"/>
<path d="M41.5314 31.4224C41.5314 32.1634 41.3852 32.8751 41.0927 33.5576C40.8002 34.2401 40.4199 34.9031 39.9519 35.5466C39.4839 36.1706 38.9574 36.7751 38.3724 37.3601C37.7874 37.9451 37.2122 38.5009 36.6467 39.0274C36.3542 39.3004 36.0324 39.6124 35.6814 39.9634C35.3499 40.2949 35.0282 40.6361 34.7162 40.9871C34.4042 41.3381 34.1214 41.6696 33.8679 41.9816C33.6339 42.2741 33.4877 42.5179 33.4292 42.7129H42.1457V46.3691H28.6322C28.5932 46.1546 28.5737 45.8816 28.5737 45.5501C28.5737 45.2186 28.5737 44.9846 28.5737 44.8481C28.5737 43.9121 28.7199 43.0541 29.0124 42.2741C29.3244 41.4941 29.7242 40.7726 30.2117 40.1096C30.6992 39.4271 31.2452 38.7934 31.8497 38.2084C32.4737 37.6234 33.0879 37.0384 33.6924 36.4534C34.1604 36.0049 34.5992 35.5856 35.0087 35.1956C35.4182 34.7861 35.7789 34.3961 36.0909 34.0256C36.4029 33.6356 36.6467 33.2554 36.8222 32.8849C36.9977 32.4949 37.0854 32.1049 37.0854 31.7149C37.0854 30.8569 36.8417 30.2524 36.3542 29.9014C35.8667 29.5504 35.2622 29.3749 34.5407 29.3749C34.0142 29.3749 33.5169 29.4626 33.0489 29.6381C32.6004 29.7941 32.1812 29.9891 31.7912 30.2231C31.4207 30.4376 31.0989 30.6619 30.8259 30.8959C30.5529 31.1104 30.3482 31.2859 30.2117 31.4224L28.0472 28.3804C28.9052 27.5809 29.8997 26.9276 31.0307 26.4206C32.1812 25.8941 33.4097 25.6309 34.7162 25.6309C35.9057 25.6309 36.9294 25.7674 37.7874 26.0404C38.6454 26.3134 39.3474 26.7034 39.8934 27.2104C40.4589 27.6979 40.8684 28.3024 41.1219 29.0239C41.3949 29.7259 41.5314 30.5254 41.5314 31.4224Z" fill="white"/>
<path d="M50.6094 25.8649C53.6319 25.8649 55.9524 26.4011 57.5709 27.4736C59.1894 28.5266 59.9987 30.2621 59.9987 32.6801C59.9987 35.1176 59.1797 36.8824 57.5417 37.9744C55.9037 39.0469 53.5637 39.5831 50.5217 39.5831H49.0884V46.3691H44.5254V26.3914C45.5199 26.1964 46.5729 26.0599 47.6844 25.9819C48.7959 25.9039 49.7709 25.8649 50.6094 25.8649ZM50.9019 29.7551C50.5704 29.7551 50.2389 29.7649 49.9074 29.7844C49.5954 29.8039 49.3224 29.8234 49.0884 29.8429V35.6929H50.5217C52.1012 35.6929 53.2907 35.4784 54.0902 35.0494C54.8897 34.6204 55.2894 33.8209 55.2894 32.6509C55.2894 32.0854 55.1822 31.6174 54.9677 31.2469C54.7727 30.8764 54.4802 30.5839 54.0902 30.3694C53.7197 30.1354 53.2614 29.9794 52.7154 29.9014C52.1694 29.8039 51.5649 29.7551 50.9019 29.7551Z" fill="white"/>
</svg>
