<svg width="96" height="97" viewBox="0 0 96 97" fill="none" xmlns="http://www.w3.org/2000/svg">
<g clip-path="url(#clip0_8939_18929)">
<path d="M8.02 42.5245H0V47.5245H8.02V42.5245Z" fill="#414652"/>
<path d="M20.59 42.5245H12.57V47.5245H20.59V42.5245Z" fill="#414652"/>
<path d="M33.16 42.5245H25.14V47.5245H33.16V42.5245Z" fill="#414652"/>
<path d="M45.73 42.5245H37.71V47.5245H45.73V42.5245Z" fill="#414652"/>
<path d="M58.29 42.5245H50.27V47.5245H58.29V42.5245Z" fill="#414652"/>
<path d="M70.86 42.5245H62.84V47.5245H70.86V42.5245Z" fill="#414652"/>
<path d="M83.43 42.5245H75.41V47.5245H83.43V42.5245Z" fill="#414652"/>
<path d="M96 42.5245H87.98V47.5245H96V42.5245Z" fill="#414652"/>
<path d="M72.76 0.564453C72.76 2.22445 71.42 3.56445 69.76 3.56445C68.1 3.56445 66.76 2.22445 66.76 0.564453H61.76C61.76 2.22445 60.42 3.56445 58.76 3.56445C57.1 3.56445 55.76 2.22445 55.76 0.564453H50.76C50.76 2.22445 49.42 3.56445 47.76 3.56445C46.1 3.56445 44.76 2.22445 44.76 0.564453H39.76C39.76 2.22445 38.42 3.56445 36.76 3.56445C35.1 3.56445 33.76 2.22445 33.76 0.564453H29.23C29.23 2.22445 27.89 3.56445 26.23 3.56445C24.57 3.56445 23.23 2.22445 23.23 0.564453H17.99V79.4445H23.24C23.31 77.8445 24.61 76.5645 26.23 76.5645C27.85 76.5645 29.15 77.8445 29.22 79.4445H33.77C33.84 77.8445 35.14 76.5645 36.76 76.5645C38.38 76.5645 39.68 77.8445 39.75 79.4445H44.78C44.85 77.8445 46.15 76.5645 47.77 76.5645C49.39 76.5645 50.69 77.8445 50.76 79.4445H55.79C55.86 77.8445 57.16 76.5645 58.78 76.5645C60.4 76.5645 61.7 77.8445 61.77 79.4445H66.8C66.87 77.8445 68.17 76.5645 69.79 76.5645C71.41 76.5645 72.71 77.8445 72.78 79.4445H78.03V0.564453H72.76Z" fill="#5C616D"/>
<path d="M37.14 22.2245C37.14 20.2445 36.1 19.1245 33.33 18.3545C31.35 17.7945 30.91 17.4345 30.91 16.6245C30.91 16.0545 31.25 15.3545 32.44 15.3545C33.86 15.3545 34.1 16.1845 34.23 16.7045H36.86C36.72 15.2545 35.9 13.8345 33.6 13.4845V12.2945H31.39V13.5045C29.63 13.8345 28.25 15.0045 28.25 16.8845C28.25 18.6245 29.17 19.7845 32.3 20.6845C34.02 21.1745 34.5 21.6245 34.5 22.5345C34.5 23.2745 34.06 23.9345 32.69 23.9345C31.58 23.9345 30.84 23.3345 30.63 22.3745H28C28.14 24.1645 29.38 25.4745 31.52 25.8045V27.2945H33.74V25.8045C35.77 25.5045 37.14 24.3345 37.14 22.2345V22.2245Z" fill="#9498A2"/>
<path d="M28 32.7145H68V37.7145H28V32.7145Z" fill="#9498A2"/>
<path d="M28 42.7145H68V47.7145H28V42.7145Z" fill="#9498A2"/>
<path d="M68 52.7145H28V57.7145H68V52.7145Z" fill="#9498A2"/>
<path d="M28 62.7145H68V67.7145H28V62.7145Z" fill="#9498A2"/>
<path d="M60.5 12.2845C56.36 12.2845 53 15.6445 53 19.7845C53 23.9245 56.36 27.2845 60.5 27.2845C64.64 27.2845 68 23.9245 68 19.7845C68 15.6445 64.64 12.2845 60.5 12.2845ZM59.61 22.9645L56.53 19.8845L58.02 18.3945L59.61 19.9845L62.97 16.6245L64.46 18.1145L59.6 22.9745L59.61 22.9645Z" fill="#9498A2"/>
<g clip-path="url(#clip1_8939_18929)">
<circle cx="73" cy="76.5645" r="20" fill="white"/>
<path d="M73 96.5645C65.8125 96.5645 59.25 92.8145 55.6562 86.5645C52.0625 80.3926 52.0625 72.8145 55.6562 66.5645C59.25 60.3926 65.8125 56.5645 73 56.5645C80.1094 56.5645 86.6719 60.3926 90.2656 66.5645C93.8594 72.8145 93.8594 80.3926 90.2656 86.5645C86.6719 92.8145 80.1094 96.5645 73 96.5645ZM81.8281 72.8926H81.75C82.5312 72.1895 82.5312 71.0176 81.75 70.2363C81.0469 69.5332 79.875 69.5332 79.1719 70.2363L70.5 78.9863L66.8281 75.3145C66.0469 74.5332 64.875 74.5332 64.1719 75.3145C63.3906 76.0176 63.3906 77.1895 64.1719 77.8926L69.1719 82.8926C69.875 83.6738 71.0469 83.6738 71.8281 82.8926L81.8281 72.8926Z" fill="#FF444F"/>
</g>
</g>
<defs>
<clipPath id="clip0_8939_18929">
<rect width="96" height="96" fill="white" transform="translate(0 0.564453)"/>
</clipPath>
<clipPath id="clip1_8939_18929">
<rect width="64" height="64" fill="white" transform="translate(41 44.5645)"/>
</clipPath>
</defs>
</svg>
