<svg width="96" height="97" viewBox="0 0 96 97" fill="none" xmlns="http://www.w3.org/2000/svg">
<g clip-path="url(#clip0_8939_18941)">
<path d="M6.00001 34.5845C2.6863 34.5845 0 37.2707 0 40.5845V96.5645L13.88 82.6845H73.15C76.4637 82.6845 79.15 79.9982 79.15 76.6845V40.5845C79.15 37.2707 76.4637 34.5845 73.15 34.5845H6.00001ZM21.22 65.6745C18.12 65.6745 15.61 63.1645 15.61 60.0645C15.61 56.9645 18.12 54.4545 21.22 54.4545C24.32 54.4545 26.83 56.9645 26.83 60.0645C26.83 63.1645 24.32 65.6745 21.22 65.6745ZM39.57 65.6745C36.47 65.6745 33.96 63.1645 33.96 60.0645C33.96 56.9645 36.47 54.4545 39.57 54.4545C42.67 54.4545 45.18 56.9645 45.18 60.0645C45.18 63.1645 42.67 65.6745 39.57 65.6745ZM57.93 65.6745C54.83 65.6745 52.32 63.1645 52.32 60.0645C52.32 56.9645 54.83 54.4545 57.93 54.4545C61.03 54.4545 63.54 56.9645 63.54 60.0645C63.54 63.1645 61.03 65.6745 57.93 65.6745Z" fill="#414652"/>
<path d="M36.9 0.564453C33.5863 0.564453 30.9 3.25074 30.9 6.56445V51.5445L42.31 40.1345H90C93.3137 40.1345 96 37.4482 96 34.1345V6.56446C96 3.25075 93.3137 0.564453 90 0.564453H36.9ZM48.35 26.1345C45.8 26.1345 43.74 24.0645 43.74 21.5245C43.74 18.9745 45.81 16.9145 48.35 16.9145C50.89 16.9145 52.96 18.9845 52.96 21.5245C52.96 24.0645 50.89 26.1345 48.35 26.1345ZM63.45 26.1345C60.9 26.1345 58.84 24.0645 58.84 21.5245C58.84 18.9745 60.91 16.9145 63.45 16.9145C65.99 16.9145 68.06 18.9845 68.06 21.5245C68.06 24.0645 65.99 26.1345 63.45 26.1345ZM78.55 26.1345C76 26.1345 73.94 24.0645 73.94 21.5245C73.94 18.9745 76.01 16.9145 78.55 16.9145C81.09 16.9145 83.16 18.9845 83.16 21.5245C83.16 24.0645 81.09 26.1345 78.55 26.1345Z" fill="#787D88"/>
<g clip-path="url(#clip1_8939_18941)">
<circle cx="73" cy="76.5645" r="20" fill="white"/>
<path d="M73 96.5645C65.8125 96.5645 59.25 92.8145 55.6562 86.5645C52.0625 80.3926 52.0625 72.8145 55.6562 66.5645C59.25 60.3926 65.8125 56.5645 73 56.5645C80.1094 56.5645 86.6719 60.3926 90.2656 66.5645C93.8594 72.8145 93.8594 80.3926 90.2656 86.5645C86.6719 92.8145 80.1094 96.5645 73 96.5645ZM73 66.5645C71.9062 66.5645 71.125 67.4238 71.125 68.4395V77.1895C71.125 78.2832 71.9062 79.0645 73 79.0645C74.0156 79.0645 74.875 78.2832 74.875 77.1895V68.4395C74.875 67.4238 74.0156 66.5645 73 66.5645ZM70.5 84.0645C70.5 85.4707 71.5938 86.5645 73 86.5645C74.3281 86.5645 75.5 85.4707 75.5 84.0645C75.5 82.7363 74.3281 81.5645 73 81.5645C71.5938 81.5645 70.5 82.7363 70.5 84.0645Z" fill="#FF444F"/>
</g>
</g>
<defs>
<clipPath id="clip0_8939_18941">
<rect width="96" height="96" fill="white" transform="translate(0 0.564453)"/>
</clipPath>
<clipPath id="clip1_8939_18941">
<rect width="64" height="64" fill="white" transform="translate(41 44.5645)"/>
</clipPath>
</defs>
</svg>
