<svg width="96" height="97" viewBox="0 0 96 97" fill="none" xmlns="http://www.w3.org/2000/svg">
<g clip-path="url(#clip0_8939_18917)">
<path d="M96 0.564453H16V46.2745H96V0.564453Z" fill="#414652"/>
<path d="M88 14.7745H8V60.4845H88V14.7745Z" fill="#5C616D"/>
<path d="M80 28.9745H0V74.6845H80V28.9745Z" fill="#9498A2"/>
<path d="M49.14 56.7045C49.14 52.7545 47.06 50.5145 41.51 48.9645C37.54 47.8445 36.66 47.1145 36.66 45.4945C36.66 44.3545 37.34 42.9445 39.72 42.9445C42.56 42.9445 43.04 44.6145 43.31 45.6445H48.58C48.3 42.7545 46.66 39.9045 42.05 39.2045V36.8245H37.64V39.2445C34.12 39.9045 31.36 42.2445 31.36 46.0045C31.36 49.4945 33.19 51.8045 39.46 53.6145C42.9 54.5945 43.87 55.4845 43.87 57.3045C43.87 58.7945 42.99 60.1045 40.25 60.1045C38.03 60.1045 36.56 58.8945 36.13 56.9845H30.87C31.16 60.5745 33.62 63.1845 37.91 63.8445V66.8245H42.36V63.8345C46.43 63.2245 49.14 60.8945 49.14 56.7045Z" fill="#B1B4BC"/>
<g clip-path="url(#clip1_8939_18917)">
<circle cx="73" cy="76.5645" r="20" fill="white"/>
<path d="M73 96.5645C65.8125 96.5645 59.25 92.8145 55.6562 86.5645C52.0625 80.3926 52.0625 72.8145 55.6562 66.5645C59.25 60.3926 65.8125 56.5645 73 56.5645C80.1094 56.5645 86.6719 60.3926 90.2656 66.5645C93.8594 72.8145 93.8594 80.3926 90.2656 86.5645C86.6719 92.8145 80.1094 96.5645 73 96.5645ZM66.6719 70.2363C65.8906 71.0176 65.8906 72.1895 66.6719 72.8926L70.3438 76.5645L66.6719 80.2363C65.8906 81.0176 65.8906 82.1895 66.6719 82.8926C67.375 83.6738 68.5469 83.6738 69.25 82.8926L72.9219 79.2207L76.5938 82.8926C77.375 83.6738 78.5469 83.6738 79.25 82.8926C80.0312 82.1895 80.0312 81.0176 79.25 80.2363L75.5781 76.5645L79.25 72.8926C80.0312 72.1895 80.0312 71.0176 79.25 70.2363C78.5469 69.5332 77.375 69.5332 76.5938 70.2363L72.9219 73.9082L69.25 70.2363C68.5469 69.5332 67.375 69.5332 66.6719 70.2363Z" fill="#FF444F"/>
</g>
</g>
<defs>
<clipPath id="clip0_8939_18917">
<rect width="96" height="96" fill="white" transform="translate(0 0.564453)"/>
</clipPath>
<clipPath id="clip1_8939_18917">
<rect width="64" height="64" fill="white" transform="translate(41 44.5645)"/>
</clipPath>
</defs>
</svg>
