<svg width="128" height="128" viewBox="0 0 128 128" fill="none" xmlns="http://www.w3.org/2000/svg">
<path d="M105.854 59.1189C105.851 68.9707 105.848 78.8214 105.845 88.6733C105.848 88.8853 105.85 89.1945 105.845 89.567C105.834 90.3224 105.829 90.7076 105.786 91.1054C105.66 92.246 105.264 93.0869 105.163 93.2927C105.047 93.5311 104.768 94.065 104.273 94.6485C103.974 95.002 103.682 95.271 103.445 95.4683C103.178 95.6308 102.796 95.8355 102.315 96.0117C101.287 96.3874 100.427 96.4043 99.9555 96.4085C98.8148 96.4201 97.9574 96.1827 97.2201 95.9716C96.4965 95.7648 95.9098 95.5264 95.4948 95.3365C94.6353 95.0104 93.7769 94.6844 92.9174 94.3594V69.7156C92.9258 69.2281 92.9121 68.613 92.8384 67.9082C92.7162 66.7412 92.4866 65.8781 92.4213 65.6438C92.0389 64.2479 91.5144 63.2624 91.1921 62.6641C90.9224 62.1629 90.2641 61.0065 89.1508 59.7245C88.681 59.1843 88.0258 58.4394 86.9894 57.6596C86.113 57.0002 85.3441 56.6024 84.8881 56.3681C84.1602 55.9957 83.5135 55.734 83.0142 55.5536C64.2612 48.1824 45.5082 40.8101 26.7552 33.4379C25.8673 33.153 25.17 32.808 24.6739 32.5252C24.3611 32.3458 23.9113 32.0863 23.3847 31.6505C22.9791 31.3149 22.5526 30.9604 22.1649 30.3695C21.9574 30.0519 21.6183 29.5339 21.5108 28.7911C21.356 27.7212 21.7805 26.8749 21.9775 26.4972C22.3998 25.6826 22.9707 25.2194 23.4637 24.8185C23.6459 24.6707 24.0788 24.3342 24.9414 23.8847C26.2823 23.1862 27.4736 22.8338 28.133 22.6639C29.7034 22.2598 30.9379 22.2028 31.8111 22.1669C33.6512 22.092 35.0553 22.2914 35.5882 22.3758C35.8716 22.4212 36.6247 22.5468 37.5811 22.8021C38.2836 22.9899 38.8935 23.1936 39.3949 23.3782C57.8635 30.6249 76.3321 37.8705 94.8007 45.1172C95.1556 45.247 95.6654 45.4422 96.2679 45.7028C97.2054 46.1069 98.0522 46.473 98.9939 47.0734C100.05 47.7455 100.748 48.4092 101.166 48.8112C101.528 49.1594 102.525 50.1513 103.515 51.6812C104.585 53.3336 105.081 54.7401 105.2 55.0872C105.621 56.3164 105.742 57.2186 105.775 57.4802C105.856 58.1355 105.866 58.6979 105.854 59.1189Z" fill="#EBECEE" stroke="black" stroke-width="0.517763" stroke-linecap="round" stroke-linejoin="round"/>
<path d="M110.238 56.5673C110.226 66.7241 110.215 76.8798 110.203 87.0355C110.201 87.275 110.187 87.5915 110.138 87.9598C110.092 88.2911 110.005 88.9094 109.703 89.6374C109.608 89.8664 109.253 90.6799 108.479 91.5135C108.073 91.9492 107.679 92.2563 107.387 92.4568C106.073 93.4612 104.757 94.4647 103.442 95.4692C103.679 95.2719 103.971 95.0028 104.27 94.6493C104.765 94.0658 105.044 93.5319 105.16 93.2935C105.261 93.0877 105.657 92.2468 105.782 91.1062C105.825 90.7084 105.831 90.3233 105.841 89.5678C105.847 89.1953 105.844 88.8862 105.841 88.6741C105.844 78.8223 105.848 68.9715 105.851 59.1197C105.862 58.6987 105.853 58.1363 105.772 57.4811C105.739 57.2194 105.618 56.3172 105.197 55.088C105.078 54.7409 104.581 53.3344 103.511 51.682C102.521 50.1521 101.525 49.1603 101.162 48.8121C100.744 48.4101 100.047 47.7464 98.9906 47.0742C98.0489 46.4739 97.202 46.1077 96.2646 45.7036C95.6621 45.443 95.1523 45.2478 94.7974 45.118C76.3288 37.8713 57.8601 30.6257 39.3915 23.379C38.8902 23.1944 38.2803 22.9907 37.5777 22.8029C36.6213 22.5476 35.8682 22.422 35.5849 22.3767C35.0519 22.2922 33.6479 22.0928 31.8078 22.1677C30.9346 22.2036 29.7001 22.2606 28.1296 22.6647C27.4703 22.8346 26.279 23.187 24.9381 23.8855C24.0755 24.335 23.6426 24.6716 23.4603 24.8193C22.9674 25.2203 22.3965 25.6835 21.9741 26.498C21.7772 26.8758 21.3527 27.722 21.5075 28.7919C21.6149 29.5347 21.9541 30.0528 22.1616 30.3704C22.5492 30.9612 22.9758 31.3158 23.3813 31.6513C23.908 32.0871 24.3577 32.3467 24.6706 32.526C25.1667 32.8088 25.864 33.1538 26.7519 33.4387C45.5049 40.811 64.2579 48.1832 83.0109 55.5544C83.5102 55.7348 84.1569 55.9965 84.8847 56.369C85.3408 56.6032 86.1097 57.001 86.9861 57.6604C88.0225 58.4402 88.6777 59.1851 89.1474 59.7253C90.2608 61.0073 90.9191 62.1638 91.1887 62.665C91.5111 63.2632 92.0356 64.2487 92.4179 65.6447C92.4832 65.8789 92.7129 66.742 92.8351 67.909C92.9088 68.6138 92.9225 69.229 92.9141 69.7164V97.2935C92.9077 98.3159 92.9004 99.3394 92.894 100.362C92.894 100.655 92.8772 101.036 92.8056 101.474C92.6908 102.168 92.4938 102.684 92.399 102.914C92.2873 103.183 92.0704 103.7 91.6353 104.27C91.3236 104.678 91.0181 104.959 90.7632 105.193C90.4999 105.435 90.2629 105.624 90.0838 105.76C88.8736 106.686 87.6633 107.613 86.4531 108.54C86.8512 108.193 87.0872 107.859 87.2863 107.579C87.4421 107.358 87.9119 106.666 88.23 105.635C88.3322 105.306 88.4438 104.857 88.5049 104.309C88.5271 93.6195 88.5502 82.9289 88.5723 72.2382C88.5692 71.9829 88.5576 71.6189 88.5123 71.1862C88.3385 69.4991 87.8266 68.2783 87.4811 67.4711C87.2062 66.8275 86.531 65.3693 85.2608 63.7581C84.6909 63.0343 83.6945 61.7902 82.0092 60.619C80.8611 59.8214 79.7888 59.3318 78.9957 59.03L22.2817 36.7867C21.7298 36.5714 20.984 36.2538 20.1298 35.8128C19.2903 35.3791 18.4445 34.9412 17.5818 34.2733C16.7792 33.6508 15.1751 32.4089 14.4441 30.2311C14.2176 29.5579 14.1196 28.9248 14.0859 28.3793V28.3709C14.087 28.0575 14.087 27.7441 14.088 27.4308C14.1091 27.2398 14.1502 26.9644 14.2366 26.6415C14.4262 25.924 14.7727 25.2086 15.4552 24.3477C16.6339 22.8631 18.0885 21.8607 18.8753 21.3679C20.332 20.4574 21.5591 20.0037 22.5187 19.6555C22.9116 19.513 24.7443 18.8588 27.4861 18.4188C31.0188 17.8522 33.8227 17.9989 34.8908 18.0759C36.1 18.1635 38.6184 18.4157 41.6867 19.3273C42.9738 19.7103 44.0429 20.1155 44.8392 20.4447C62.995 27.57 81.1518 34.6954 99.3087 41.8207C99.8964 42.0244 100.674 42.3251 101.553 42.7587C102.455 43.203 103.63 43.7907 104.9 44.8595C106.245 45.9917 107.033 47.1059 107.606 47.9279C108.175 48.7445 108.813 49.6709 109.346 51.0563C109.469 51.376 109.993 52.7762 110.179 54.7208C110.249 55.4626 110.252 56.0957 110.238 56.5673Z" fill="white" stroke="black" stroke-width="0.517763" stroke-linecap="round" stroke-linejoin="round"/>
<path d="M17.5855 34.2732C18.4482 34.9411 19.294 35.379 20.1335 35.8127C20.9877 36.2537 21.7334 36.5713 22.2854 36.7866C41.19 44.201 60.0947 51.6155 78.9994 59.0299C79.7925 59.3317 80.8648 59.8213 82.0129 60.619C83.6982 61.7902 84.6946 63.0342 85.2644 63.7569C86.5347 65.3681 87.2099 66.8274 87.4848 67.471C87.8303 68.2771 88.3411 69.499 88.516 71.1851C88.5613 71.6188 88.5729 71.9817 88.575 72.2381C88.5529 82.9288 88.5307 93.6194 88.5076 104.309C88.4465 104.856 88.3338 105.305 88.2327 105.634C87.9146 106.665 87.4448 107.357 87.2889 107.578C87.0909 107.857 86.8539 108.192 86.4557 108.539C85.6478 109.244 84.7862 109.469 84.2101 109.612C84.0131 109.661 83.1357 109.87 81.9497 109.783C81.0302 109.716 80.3834 109.505 79.2954 109.15C78.4727 108.882 77.7618 108.597 77.1761 108.339C58.7855 101.112 40.3959 93.8843 22.0052 86.6576C21.5333 86.4762 20.9298 86.2219 20.2504 85.8726C19.1465 85.3071 18.3829 84.7721 18.1986 84.6413C17.8299 84.3806 17.2095 83.9364 16.4933 83.2411C15.8476 82.6133 15.3778 82.1575 14.9365 81.3936C14.8185 81.1889 14.3477 80.35 14.1233 79.1292C14.0043 78.4845 13.9906 77.9306 14.0043 77.5307C14.0327 60.831 14.0601 44.1303 14.0886 27.4307C14.0454 28.1123 14.0707 29.1147 14.4456 30.231C15.1766 32.4078 16.7798 33.6507 17.5834 34.2732H17.5855Z" fill="#EBECEE" stroke="black" stroke-width="0.517763" stroke-linecap="round" stroke-linejoin="round"/>
<path d="M17.5855 34.2742C18.4482 34.9421 19.294 35.38 20.1335 35.8137C20.9877 36.2547 21.7334 36.5723 22.2854 36.7875C41.19 44.202 60.0947 51.6164 78.9994 59.0309C79.7925 59.3327 80.8648 59.8222 82.0129 60.6199C83.6982 61.7911 84.6946 63.0351 85.2644 63.7579C86.5347 65.3691 87.2099 66.8284 87.4848 67.472C87.8303 68.2781 88.3411 69.5 88.516 71.1861C88.5613 71.6197 88.5729 71.9827 88.575 72.2391C88.5529 82.9298 88.5307 93.6204 88.5076 104.31C88.4465 104.857 88.3338 105.306 88.2327 105.635C87.9146 106.666 87.4448 107.358 87.2889 107.579C87.0909 107.858 86.8539 108.193 86.4557 108.54C85.6478 109.245 84.7862 109.47 84.2101 109.613C84.0131 109.662 83.1357 109.871 81.9497 109.784C81.0302 109.717 80.3834 109.506 79.2954 109.151C78.4727 108.883 77.7618 108.598 77.1761 108.34C58.7855 101.113 40.3959 93.8852 22.0052 86.6586C21.5333 86.4771 20.9298 86.2228 20.2504 85.8736C19.1465 85.308 18.3829 84.7731 18.1986 84.6422C17.8299 84.3816 17.2095 83.9374 16.4933 83.2421C15.8476 82.6143 15.3778 82.1585 14.9365 81.3945C14.8185 81.1898 14.3477 80.351 14.1233 79.1302C14.0043 78.4855 13.9906 77.9316 14.0043 77.5317C14.0327 60.832 14.0601 44.1313 14.0886 27.4316C14.0454 28.1133 14.0707 29.1156 14.4456 30.232C15.1766 32.4087 16.7798 33.6517 17.5834 34.2742H17.5855Z" fill="#EBECEE" stroke="black" stroke-width="0.517763" stroke-linecap="round" stroke-linejoin="round"/>
<path d="M19.7495 20.8584C19.4683 21.0114 19.1765 21.1792 18.8753 21.367C18.0885 21.8597 16.6339 22.8621 15.4552 24.3467C14.7727 25.2077 14.4262 25.9231 14.2366 26.6405C14.1502 26.9634 14.1091 27.2388 14.088 27.4298C14.088 27.7432 14.088 28.0565 14.0859 28.3699V28.3784C14.1196 28.9239 14.2176 29.5569 14.4441 30.2301C15.1751 32.4079 16.7792 33.6498 17.5818 34.2724C18.4445 34.9403 19.2903 35.3781 20.1298 35.8118C20.984 36.2528 21.7298 36.5704 22.2817 36.7857L78.9957 59.029C79.7888 59.3308 80.8611 59.8204 82.0092 60.6181C83.6945 61.7893 84.6909 63.0333 85.2607 63.7571C86.531 65.3683 87.2062 66.8265 87.4811 67.4701C87.8266 68.2773 88.3385 69.4981 88.5123 71.1853C88.5576 71.6179 88.5692 71.9819 88.5723 72.2372C88.5502 82.9279 88.527 93.6185 88.5049 104.308C88.4438 104.856 88.3322 105.305 88.23 105.634C87.9119 106.665 87.4421 107.357 87.2862 107.578C87.0872 107.858 86.8512 108.192 86.4531 108.539C87.6633 107.612 88.8736 106.685 90.0838 105.759C90.2629 105.623 90.4999 105.434 90.7632 105.192C91.0181 104.958 91.3236 104.677 91.6353 104.269C92.0703 103.699 92.2873 103.182 92.399 102.913C92.4938 102.683 92.6907 102.167 92.8055 101.473C92.8772 101.035 92.8951 100.654 92.894 100.361C92.9003 99.3384 92.9077 98.3149 92.914 97.2925V69.7155C92.9225 69.228 92.9088 68.6128 92.835 67.908C92.7129 66.741 92.4832 65.8779 92.4179 65.6437C92.0356 64.2477 91.511 63.2622 91.1887 62.664C90.9191 62.1628 90.2608 61.0064 89.1474 59.7244C88.6777 59.1841 88.0225 58.4392 86.9861 57.6595C86.1097 57 85.3408 56.6022 84.8847 56.368C84.1569 55.9955 83.5102 55.7338 83.0109 55.5534C64.2579 48.1822 45.5049 40.81 26.7519 33.4377C25.864 33.1529 25.1667 32.8078 24.6706 32.525C24.3577 32.3457 23.908 32.0861 23.3813 31.6503C22.9758 31.3148 22.5492 30.9603 22.1616 30.3694C21.9541 30.0518 21.6149 29.5337 21.5075 28.7909C21.3527 27.721 21.7772 26.8748 21.9741 26.4971C22.3965 25.6825 22.9674 25.2193 23.4603 24.8183C23.6426 24.6706 24.0755 24.334 24.9381 23.8845" fill="white"/>
<path d="M19.7495 20.8584C19.4683 21.0114 19.1765 21.1792 18.8753 21.367C18.0885 21.8597 16.6339 22.8621 15.4552 24.3467C14.7727 25.2077 14.4262 25.9231 14.2366 26.6405C14.1502 26.9634 14.1091 27.2388 14.088 27.4298C14.088 27.7432 14.088 28.0565 14.0859 28.3699V28.3784C14.1196 28.9239 14.2176 29.5569 14.4441 30.2301C15.1751 32.4079 16.7792 33.6498 17.5818 34.2724C18.4445 34.9403 19.2903 35.3781 20.1298 35.8118C20.984 36.2528 21.7298 36.5704 22.2817 36.7857L78.9957 59.029C79.7888 59.3308 80.8611 59.8204 82.0092 60.6181C83.6945 61.7893 84.6909 63.0333 85.2607 63.7571C86.531 65.3683 87.2062 66.8265 87.4811 67.4701C87.8266 68.2773 88.3385 69.4981 88.5123 71.1853C88.5576 71.6179 88.5692 71.9819 88.5723 72.2372C88.5502 82.9279 88.527 93.6185 88.5049 104.308C88.4438 104.856 88.3322 105.305 88.23 105.634C87.9119 106.665 87.4421 107.357 87.2862 107.578C87.0872 107.858 86.8512 108.192 86.4531 108.539C87.6633 107.612 88.8736 106.685 90.0838 105.759C90.2629 105.623 90.4999 105.434 90.7632 105.192C91.0181 104.958 91.3236 104.677 91.6353 104.269C92.0703 103.699 92.2873 103.182 92.399 102.913C92.4938 102.683 92.6907 102.167 92.8055 101.473C92.8772 101.035 92.8951 100.654 92.894 100.361C92.9003 99.3384 92.9077 98.3149 92.914 97.2925V69.7155C92.9225 69.228 92.9088 68.6128 92.835 67.908C92.7129 66.741 92.4832 65.8779 92.4179 65.6437C92.0356 64.2477 91.511 63.2622 91.1887 62.664C90.9191 62.1628 90.2608 61.0064 89.1474 59.7244C88.6777 59.1841 88.0225 58.4392 86.9861 57.6595C86.1097 57 85.3408 56.6022 84.8847 56.368C84.1569 55.9955 83.5102 55.7338 83.0109 55.5534C64.2579 48.1822 45.5049 40.81 26.7519 33.4377C25.864 33.1529 25.1667 32.8078 24.6706 32.525C24.3577 32.3457 23.908 32.0861 23.3813 31.6503C22.9758 31.3148 22.5492 30.9603 22.1616 30.3694C21.9541 30.0518 21.6149 29.5337 21.5075 28.7909C21.3527 27.721 21.7772 26.8748 21.9741 26.4971C22.3965 25.6825 22.9674 25.2193 23.4603 24.8183C23.6426 24.6706 24.0755 24.334 24.9381 23.8845" stroke="black" stroke-width="0.517763" stroke-linecap="round" stroke-linejoin="round"/>
<path d="M113.987 78.6509C113.975 78.7322 113.954 78.8736 113.878 79.0308C113.812 79.169 113.725 79.264 113.552 79.4476C113.447 79.5594 113.354 79.6481 113.287 79.7082C106.017 85.3268 98.7445 90.9454 91.4736 96.563C91.2935 96.6832 91.028 96.8405 90.6847 96.9724C90.2233 97.1517 89.8452 97.2003 89.4512 97.2488C88.853 97.3216 88.3842 97.3026 88.2094 97.2931C87.7259 97.2667 87.0223 97.1771 86.2092 96.8837C82.3035 95.3422 78.3979 93.7995 74.4912 92.258C74.3658 92.2232 74.1963 92.1673 74.0046 92.0797C73.6106 91.8982 73.3599 91.6882 73.2946 91.6323C73.1093 91.474 72.9565 91.3432 72.8375 91.1111C72.7395 90.9222 72.7048 90.746 72.689 90.6574C72.6553 90.478 72.6532 90.325 72.6584 90.2142C72.6711 85.3764 72.6827 80.5386 72.6943 75.7018C72.7037 75.7936 72.7248 75.8886 72.7596 75.9846C72.8881 76.3339 73.1493 76.528 73.4284 76.7369C73.677 76.9216 73.9119 77.0303 74.0751 77.0936C77.9102 78.6003 81.7453 80.106 85.5793 81.6127C86.0501 81.8216 86.4736 81.9535 86.8085 82.0401C87.5616 82.2321 88.1557 82.2616 88.3358 82.268C88.5939 82.2775 88.9983 82.2912 89.525 82.2089C89.7504 82.173 90.1538 82.1076 90.6457 81.9103C91.0575 81.7457 91.3546 81.5589 91.5673 81.4239C91.8106 81.2698 92.0076 81.1221 92.1519 81.0071C99.0426 75.6976 105.932 70.3871 112.822 65.0777C112.908 65.0154 113.03 64.9226 113.168 64.8002C113.419 64.5786 113.592 64.4245 113.724 64.1745C113.773 64.0816 113.879 63.8748 113.892 63.5889C113.926 68.4963 113.961 73.4038 113.994 78.3123C114.002 78.3967 114.006 78.5138 113.987 78.6509Z" fill="#EBECEE" stroke="black" stroke-width="0.517763" stroke-linecap="round" stroke-linejoin="round"/>
<path d="M73.3076 74.2941C78.393 76.2756 83.4773 78.2561 88.5626 80.2377C95.7872 74.6718 103.012 69.1049 110.237 63.5391C110.237 62.7351 110.24 61.93 110.241 61.126C110.842 61.3349 111.444 61.5427 112.045 61.7517C112.225 61.816 112.487 61.9226 112.789 62.0893C113.213 62.3246 113.465 62.4639 113.661 62.7646C113.723 62.8596 113.918 63.1687 113.899 63.5887C113.885 63.8746 113.779 64.0825 113.73 64.1743C113.599 64.4243 113.425 64.5784 113.175 64.8C113.037 64.9224 112.915 65.0152 112.829 65.0785C105.939 70.388 99.0493 75.6974 92.1586 81.0069C92.0132 81.1229 91.8173 81.2696 91.574 81.4236C91.3612 81.5587 91.0642 81.7455 90.6524 81.9101C90.1605 82.1074 89.7581 82.1728 89.5317 82.2076C89.005 82.2899 88.6005 82.2773 88.3425 82.2667C88.1624 82.2604 87.5693 82.2308 86.8162 82.0388C86.4802 81.9533 86.0579 81.8214 85.587 81.6115C81.752 80.1058 77.9169 78.599 74.0829 77.0934C73.9196 77.0301 73.6847 76.9214 73.4361 76.7357C73.157 76.5278 72.8958 76.3326 72.7673 75.9834C72.5556 75.4073 72.8663 74.8554 72.9232 74.7541C73.0475 74.5326 73.2013 74.3827 73.3097 74.292L73.3076 74.2941Z" fill="white" stroke="black" stroke-width="0.517763" stroke-linecap="round" stroke-linejoin="round"/>
<path d="M61.9851 89.0521C61.7782 90.4718 61.3907 92.9535 59.7689 95.6135C58.6207 97.4949 57.3075 98.7244 56.7346 99.2267C56.0612 99.8176 55.4393 100.261 54.9597 100.573C52.6669 101.671 50.3741 102.769 48.0789 103.867C51.2508 102.035 52.8439 99.4456 53.473 98.3955C55.0984 95.6805 55.4823 93.2131 55.6892 91.785C56.3351 87.331 55.2898 83.8553 54.8078 82.316C54.2145 80.4203 53.0412 77.5415 50.6779 74.6602C49.7892 73.5766 47.9856 71.4202 44.8867 69.6489C43.1751 68.6705 40.1731 67.0068 36.048 67.13C34.0506 67.1898 32.3798 67.6515 31.167 68.118C33.0962 67.1599 35.0254 66.2007 36.9534 65.2427C37.9473 64.8815 39.3179 64.4904 40.9828 64.3241C43.107 64.11 44.7635 64.354 45.4524 64.4748C48.0131 64.9245 49.7976 65.8921 50.88 66.4878C51.4888 66.825 53.821 68.1562 56.1688 70.7193C56.7645 71.37 58.0992 72.9069 59.3407 75.1889C60.9338 78.118 61.5761 80.809 61.8596 82.5552C62.0629 83.8087 62.4157 86.0991 61.9851 89.0521Z" fill="#FF535E"/>
<path d="M48.0806 104.107C47.9945 104.107 47.912 104.06 47.8689 103.979C47.8091 103.865 47.8498 103.724 47.961 103.661C51.1461 101.82 52.7452 99.1503 53.2702 98.2724C54.9052 95.543 55.2628 93.0756 55.4554 91.7504C56.1072 87.2617 54.9997 83.7203 54.5823 82.3867C53.7127 79.6047 52.3373 77.056 50.4954 74.8122C49.718 73.8638 47.8988 71.6439 44.77 69.8571C43.1733 68.9445 40.2 67.2461 36.0569 67.3693C34.4208 67.4184 32.8049 67.7461 31.2549 68.3405C31.1353 68.386 31.0013 68.3297 30.9499 68.2137C30.8984 68.0965 30.9487 67.9602 31.0623 67.9028C32.3456 67.2653 33.629 66.6278 34.9123 65.9903L36.8487 65.0287C36.8571 65.0251 36.8654 65.0215 36.8738 65.0179C38.1906 64.5395 39.5661 64.2262 40.9607 64.0862C42.488 63.9319 44.056 63.9858 45.496 64.2393C48.1392 64.7034 49.9991 65.7284 50.9978 66.2785C52.0814 66.879 54.2175 68.2329 56.3476 70.5579C57.5544 71.876 58.6631 73.438 59.553 75.0754C60.8172 77.3981 61.6735 79.9025 62.0981 82.5171C62.2835 83.6605 62.6698 86.0382 62.2249 89.0869C62.0264 90.4492 61.6556 92.9847 59.9752 95.738C58.9286 97.4531 57.723 98.679 56.8942 99.4062C56.3297 99.9026 55.7233 100.362 55.0918 100.774C55.0834 100.78 55.0738 100.785 55.0643 100.79C53.5369 101.522 52.0096 102.253 50.4823 102.984L48.1835 104.084C48.15 104.099 48.1153 104.108 48.0806 104.108V104.107ZM36.4719 66.8837C40.5337 66.8837 43.5369 68.6012 45.0068 69.4409C48.2122 71.272 50.0708 73.5397 50.865 74.5084C52.7463 76.8 54.1505 79.4026 55.0379 82.2444C55.4637 83.6055 56.5952 87.2223 55.9278 91.8198C55.7304 93.1785 55.3633 95.7069 53.6793 98.5188C53.2786 99.1885 52.2691 100.875 50.4308 102.478C51.9019 101.773 53.3719 101.07 54.843 100.365C55.4506 99.9684 56.0342 99.5246 56.5784 99.0474C57.381 98.3418 58.5519 97.1517 59.5661 95.4892C61.1951 92.8197 61.5563 90.3475 61.7501 89.0187C62.1842 86.043 61.8063 83.7143 61.6245 82.5948C61.2083 80.0329 60.3699 77.5798 59.1308 75.305C58.2589 73.7011 57.1729 72.1714 55.9924 70.8821C53.9089 68.6072 51.8218 67.2844 50.7645 66.6984C49.791 66.1613 47.9766 65.1614 45.4111 64.7117C44.4363 64.5395 42.8815 64.3745 41.0061 64.5634C39.6546 64.6986 38.3234 65.0024 37.0472 65.4652L35.1228 66.4209C34.6253 66.6685 34.1277 66.916 33.6302 67.1624C34.4243 67.0069 35.2293 66.9172 36.039 66.8933C36.1837 66.8885 36.3272 66.8873 36.4696 66.8873L36.4719 66.8837Z" fill="black"/>
<path d="M48.5904 85.8451C46.0069 88.2922 43.4223 90.7405 40.8389 93.1888C38.7398 94.1851 36.642 95.1826 34.543 96.1789C39.0125 91.9449 43.4833 87.7086 47.9541 83.4746C48.1598 84.0224 48.4241 84.8333 48.5904 85.8451Z" fill="#FF444F"/>
<path d="M34.5452 96.4171C34.4686 96.4171 34.3933 96.38 34.3478 96.313C34.2808 96.2162 34.2952 96.0846 34.3801 96.0045L47.7912 83.3002C47.8498 83.2452 47.9311 83.2225 48.0089 83.2404C48.0866 83.2583 48.1512 83.3146 48.1787 83.3887C48.4741 84.1721 48.6918 84.9854 48.8282 85.8047C48.8413 85.8836 48.8138 85.9626 48.7564 86.0176C46.173 88.4647 43.5884 90.913 41.0049 93.3612C40.987 93.378 40.9655 93.3923 40.9427 93.4031L34.6468 96.3932C34.6133 96.4087 34.5787 96.4159 34.544 96.4159L34.5452 96.4171ZM47.8546 83.8982L35.8034 95.3155L40.7047 92.9881C43.2487 90.5781 45.7926 88.1681 48.3354 85.7581C48.2242 85.1301 48.0639 84.5058 47.8546 83.8982Z" fill="black"/>
<path d="M46.3996 94.8739C44.285 97.2385 41.5389 97.6738 40.9708 97.7528C37.5597 98.2252 35.0767 96.5603 34.5361 96.1776C36.6352 95.1813 38.733 94.1838 40.832 93.1875C41.2267 93.4267 41.7422 93.7066 42.3677 93.9685C42.6261 94.075 43.3652 94.3728 44.3831 94.5976C44.9105 94.7136 45.5911 94.8296 46.4008 94.8727L46.3996 94.8739Z" fill="#FF444F"/>
<path d="M39.7548 98.0767C37.1223 98.0767 35.18 96.9261 34.4002 96.3736C34.3308 96.3245 34.2925 96.242 34.2997 96.1583C34.3069 96.0734 34.3583 95.9992 34.4348 95.9633L40.7307 92.9733C40.8037 92.9386 40.8886 92.9434 40.9568 92.9852C41.434 93.2747 41.9399 93.5318 42.4614 93.7507C43.069 94.0019 43.7519 94.2159 44.4349 94.3666C45.0831 94.5102 45.7481 94.6011 46.4143 94.6369C46.5064 94.6417 46.5865 94.6991 46.6224 94.7841C46.6571 94.869 46.6415 94.967 46.5793 95.0352C44.5676 97.2838 42.0105 97.8519 41.0046 97.9918C40.5729 98.0516 40.1543 98.0779 39.7536 98.0779L39.7548 98.0767ZM35.0221 96.2133C36.065 96.8711 38.1976 97.8961 40.9412 97.5158C41.8383 97.3914 44.0378 96.907 45.8821 95.0747C45.3606 95.0256 44.8415 94.9443 44.3332 94.8319C43.6228 94.6752 42.9123 94.4528 42.2784 94.1908C41.7749 93.9803 41.2857 93.7339 40.8216 93.46L35.0221 96.2145V96.2133Z" fill="black"/>
<path d="M35.0656 78.9595C34.9161 79.493 34.531 81.0143 34.7152 82.995C34.7535 83.416 34.8145 83.8095 34.8862 84.1707C33.024 85.9456 31.163 87.7181 29.3008 89.493C28.9037 88.5697 28.375 87.0244 28.3439 85.0605C28.3248 83.953 28.3188 81.8264 29.6285 79.621C30.0973 78.8316 31.4895 76.7565 34.1614 75.7422C35.1362 75.3715 36.0894 75.216 36.9841 75.1992C36.4052 75.9336 35.5632 77.1966 35.0656 78.9595Z" fill="#FF444F"/>
<path d="M29.3024 89.7322C29.2869 89.7322 29.2701 89.731 29.2546 89.7274C29.178 89.7118 29.1135 89.6592 29.0824 89.5874C28.4592 88.1391 28.1303 86.6177 28.1064 85.0641C28.0885 84.008 28.0514 81.8109 29.4244 79.4989C30.0571 78.4321 31.5031 76.4957 34.0782 75.5185C35.0027 75.1669 35.9799 74.9791 36.981 74.96C37.079 74.9588 37.1592 75.0102 37.1998 75.0927C37.2405 75.1753 37.2309 75.2745 37.1735 75.3475C36.3076 76.4455 35.6761 77.6833 35.2969 79.0253C35.0529 79.8924 34.797 81.281 34.9549 82.9734C34.9908 83.3573 35.047 83.7448 35.1223 84.1252C35.1379 84.2053 35.1127 84.289 35.0529 84.3452C33.2003 86.1106 31.35 87.8735 29.4974 89.6389L29.4675 89.6676C29.422 89.7106 29.3634 89.7334 29.3024 89.7334V89.7322ZM36.4882 75.4635C35.7167 75.5245 34.9656 75.6932 34.248 75.9658C31.8093 76.8916 30.4375 78.7299 29.8359 79.7429C28.5322 81.9388 28.5681 84.045 28.5848 85.0569C28.6063 86.4335 28.8766 87.785 29.3897 89.0791C31.1359 87.4155 32.881 85.753 34.6284 84.0881C34.5614 83.7341 34.5111 83.3741 34.4789 83.0165C34.3138 81.2511 34.5829 79.8003 34.8377 78.8949C35.1869 77.657 35.7419 76.5053 36.4882 75.4635Z" fill="black"/>
<path d="M54.8112 82.3165C54.218 80.4208 53.0447 77.5407 50.6813 74.6607C49.7927 73.5783 47.989 71.4207 44.8889 69.6493C43.1786 68.6722 40.1766 67.0073 36.0491 67.1305C32.8688 67.2262 30.5162 68.3385 29.5271 68.8683C28.8573 69.2259 26.6267 70.4866 24.6664 73.0485C22.6595 75.6714 22.0399 78.2213 21.7194 79.5955C20.997 82.704 21.2601 85.1858 21.4168 86.5457C21.5615 87.8075 21.9777 90.4651 23.4058 93.5209C25.28 97.53 27.8239 99.9317 28.5428 100.585C30.0629 101.966 32.8975 104.541 37.458 105.42C38.8932 105.697 43.2683 106.474 47.7331 104.06C51.137 102.221 52.8234 99.482 53.4752 98.3936C55.1006 95.6798 55.4834 93.2112 55.6915 91.7831C56.3385 87.3303 55.292 83.8534 54.81 82.3141L54.8112 82.3165ZM28.343 85.0614C28.3251 83.9539 28.3191 81.8273 29.6276 79.6218C30.0964 78.8325 31.4898 76.7574 34.1605 75.7431C38.3729 74.144 42.1715 76.5468 42.5973 76.8255C38.1648 81.0475 33.7323 85.2707 29.301 89.4927C28.904 88.5706 28.3753 87.0253 28.3442 85.0602L28.343 85.0614ZM48.6791 89.1411C48.5392 90.416 48.294 92.6574 46.5454 94.7134C44.4129 97.2191 41.5556 97.6735 40.9731 97.7537C37.562 98.2261 35.0791 96.5612 34.5385 96.1797C39.008 91.9446 43.4788 87.7094 47.9484 83.4743C48.3478 84.5327 48.959 86.5768 48.6791 89.1411Z" fill="#FF7E88"/>
<path d="M40.8686 105.999C39.7503 105.999 38.5986 105.886 37.4133 105.657C32.7871 104.765 29.9226 102.162 28.3833 100.764C27.1789 99.6698 24.9016 97.2873 23.1901 93.6238C22.1495 91.398 21.4547 88.9593 21.1796 86.5744C21.0372 85.3354 20.7406 82.7555 21.4869 79.543C21.7824 78.2704 22.3983 75.6224 24.4758 72.9038C26.283 70.5404 28.345 69.2296 29.413 68.6579C30.8291 67.9008 33.1279 66.9799 36.0415 66.8925C40.3256 66.7634 43.3683 68.506 45.0069 69.4425C48.2075 71.2712 50.0697 73.5413 50.8651 74.5101C52.744 76.8005 54.1494 79.403 55.038 82.246C55.4638 83.6071 56.5953 87.2227 55.9279 91.8202C55.7305 93.1789 55.3633 95.7097 53.6805 98.5192C53.1112 99.4701 51.3782 102.364 47.8475 104.273C45.7209 105.423 43.3839 106 40.8698 106L40.8686 105.999ZM36.4864 67.3638C36.3441 67.3638 36.2005 67.3662 36.0546 67.3698C33.2344 67.4547 31.0086 68.3457 29.6379 69.0789C28.6033 69.6315 26.6072 70.9016 24.855 73.1932C22.8385 75.8293 22.2393 78.4091 21.951 79.6494C21.2238 82.7818 21.5133 85.3054 21.6532 86.5182C21.9223 88.8529 22.6028 91.2402 23.6219 93.4205C25.2987 97.0074 27.5257 99.3385 28.7038 100.409C30.2084 101.776 33.0083 104.32 37.503 105.186C41.243 105.907 44.6457 105.457 47.619 103.85C51.0349 102.003 52.7165 99.1938 53.2691 98.2716C54.9029 95.5435 55.2617 93.0761 55.4542 91.7497C56.1061 87.2598 54.9986 83.7195 54.5811 82.3871C53.7092 79.6028 52.335 77.054 50.4943 74.8115C49.7157 73.863 47.8929 71.642 44.7689 69.8563C43.2284 68.976 40.4058 67.3626 36.4864 67.3626V67.3638ZM39.7539 98.0767C37.1251 98.0767 35.1803 96.9261 34.3981 96.3747C34.3395 96.3329 34.3024 96.2683 34.2976 96.1965C34.2929 96.1247 34.3192 96.0554 34.3718 96.0051L47.7817 83.2997C47.8403 83.2447 47.9216 83.222 47.9994 83.2399C48.0771 83.2578 48.1417 83.3141 48.1692 83.3882C48.8677 85.2361 49.1248 87.2346 48.9131 89.165C48.7756 90.4197 48.5208 92.7543 46.7232 94.8653C44.6935 97.249 42.0467 97.8434 41.0026 97.9882C40.5708 98.048 40.1546 98.0743 39.7527 98.0743L39.7539 98.0767ZM34.9172 96.1487C35.9195 96.8005 38.1058 97.9092 40.938 97.5169C41.9283 97.3794 44.4376 96.8173 46.3608 94.5579C48.0628 92.5582 48.2984 90.4029 48.4395 89.116L48.6775 89.1411L48.4395 89.1148C48.6297 87.377 48.424 85.5817 47.8463 83.9001L34.9172 96.1487ZM29.2982 89.7332C29.2827 89.7332 29.2659 89.732 29.2504 89.7284C29.1738 89.7128 29.1093 89.6602 29.0782 89.5884C28.455 88.1412 28.1261 86.6187 28.1022 85.065C28.0855 84.0078 28.0496 81.8082 29.4202 79.4999C30.0529 78.433 31.5001 76.4979 34.074 75.5195C38.2744 73.9252 42.018 76.1618 42.7261 76.6258C42.7871 76.6653 42.8265 76.7311 42.8325 76.8041C42.8385 76.877 42.8122 76.9488 42.7596 76.999L29.4633 89.6662C29.4178 89.7092 29.3592 89.732 29.2982 89.732V89.7332ZM28.5806 85.0579C28.6021 86.4345 28.8736 87.786 29.3855 89.0801L42.2046 76.8674C41.2119 76.2838 37.857 74.595 34.2426 75.968C31.8039 76.8938 30.4321 78.7321 29.8305 79.7451C28.5292 81.9374 28.5639 84.046 28.5794 85.0591L28.5806 85.0579Z" fill="black"/>
</svg>
