<svg width="128" height="128" viewBox="0 0 128 128" fill="none" xmlns="http://www.w3.org/2000/svg">
<path d="M105.854 59.1189C105.851 68.9707 105.848 78.8214 105.845 88.6733C105.848 88.8853 105.85 89.1945 105.845 89.567C105.834 90.3224 105.829 90.7076 105.786 91.1054C105.66 92.246 105.264 93.0869 105.163 93.2927C105.047 93.5311 104.768 94.065 104.273 94.6485C103.974 95.002 103.682 95.271 103.445 95.4683C103.178 95.6308 102.796 95.8355 102.315 96.0117C101.287 96.3874 100.427 96.4043 99.9555 96.4085C98.8148 96.4201 97.9574 96.1827 97.2201 95.9716C96.4965 95.7648 95.9098 95.5264 95.4948 95.3365C94.6353 95.0104 93.7769 94.6844 92.9174 94.3594V69.7156C92.9258 69.2281 92.9121 68.613 92.8384 67.9082C92.7162 66.7412 92.4866 65.8781 92.4213 65.6438C92.0389 64.2479 91.5144 63.2624 91.1921 62.6641C90.9224 62.1629 90.2641 61.0065 89.1508 59.7245C88.681 59.1843 88.0258 58.4394 86.9894 57.6596C86.113 57.0002 85.3441 56.6024 84.8881 56.3681C84.1602 55.9957 83.5135 55.734 83.0142 55.5536C64.2612 48.1824 45.5082 40.8101 26.7552 33.4379C25.8673 33.153 25.17 32.808 24.6739 32.5252C24.3611 32.3458 23.9113 32.0863 23.3847 31.6505C22.9791 31.3149 22.5526 30.9604 22.1649 30.3695C21.9574 30.0519 21.6183 29.5339 21.5108 28.7911C21.356 27.7212 21.7805 26.8749 21.9775 26.4972C22.3998 25.6826 22.9707 25.2194 23.4637 24.8185C23.6459 24.6707 24.0788 24.3342 24.9414 23.8847C26.2823 23.1862 27.4736 22.8338 28.133 22.6639C29.7034 22.2598 30.9379 22.2028 31.8111 22.1669C33.6512 22.092 35.0553 22.2914 35.5882 22.3758C35.8716 22.4212 36.6247 22.5468 37.5811 22.8021C38.2836 22.9899 38.8935 23.1936 39.3949 23.3782C57.8635 30.6249 76.3321 37.8705 94.8007 45.1172C95.1556 45.247 95.6654 45.4422 96.2679 45.7028C97.2054 46.1069 98.0522 46.473 98.9939 47.0734C100.05 47.7455 100.748 48.4092 101.166 48.8112C101.528 49.1594 102.525 50.1513 103.515 51.6812C104.585 53.3336 105.081 54.7401 105.2 55.0872C105.621 56.3164 105.742 57.2186 105.775 57.4802C105.856 58.1355 105.866 58.6979 105.854 59.1189Z" fill="#EBECEE" stroke="black" stroke-width="0.517763" stroke-linecap="round" stroke-linejoin="round"/>
<path d="M110.238 56.5673C110.226 66.7241 110.215 76.8798 110.203 87.0355C110.201 87.275 110.187 87.5915 110.138 87.9598C110.092 88.2911 110.005 88.9094 109.703 89.6374C109.608 89.8664 109.253 90.6799 108.479 91.5135C108.073 91.9492 107.679 92.2563 107.387 92.4568C106.073 93.4612 104.757 94.4647 103.442 95.4692C103.679 95.2719 103.971 95.0028 104.27 94.6493C104.765 94.0658 105.044 93.5319 105.16 93.2935C105.261 93.0877 105.657 92.2468 105.782 91.1062C105.825 90.7084 105.831 90.3233 105.841 89.5678C105.847 89.1953 105.844 88.8862 105.841 88.6741C105.844 78.8223 105.848 68.9715 105.851 59.1197C105.862 58.6987 105.853 58.1363 105.772 57.4811C105.739 57.2194 105.618 56.3172 105.197 55.088C105.078 54.7409 104.581 53.3344 103.511 51.682C102.521 50.1521 101.525 49.1603 101.162 48.8121C100.744 48.4101 100.047 47.7464 98.9906 47.0742C98.0489 46.4739 97.202 46.1077 96.2646 45.7036C95.6621 45.443 95.1523 45.2478 94.7974 45.118C76.3288 37.8713 57.8601 30.6257 39.3915 23.379C38.8902 23.1944 38.2803 22.9907 37.5777 22.8029C36.6213 22.5476 35.8682 22.422 35.5849 22.3767C35.0519 22.2922 33.6479 22.0928 31.8078 22.1677C30.9346 22.2036 29.7001 22.2606 28.1296 22.6647C27.4703 22.8346 26.279 23.187 24.9381 23.8855C24.0755 24.335 23.6426 24.6716 23.4603 24.8193C22.9674 25.2203 22.3965 25.6835 21.9741 26.498C21.7772 26.8758 21.3527 27.722 21.5075 28.7919C21.6149 29.5347 21.9541 30.0528 22.1616 30.3704C22.5492 30.9612 22.9758 31.3158 23.3813 31.6513C23.908 32.0871 24.3577 32.3467 24.6706 32.526C25.1667 32.8088 25.864 33.1538 26.7519 33.4387C45.5049 40.811 64.2579 48.1832 83.0109 55.5544C83.5102 55.7348 84.1569 55.9965 84.8847 56.369C85.3408 56.6032 86.1097 57.001 86.9861 57.6604C88.0225 58.4402 88.6777 59.1851 89.1474 59.7253C90.2608 61.0073 90.9191 62.1638 91.1887 62.665C91.5111 63.2632 92.0356 64.2487 92.4179 65.6447C92.4832 65.8789 92.7129 66.742 92.8351 67.909C92.9088 68.6138 92.9225 69.229 92.9141 69.7164V97.2935C92.9077 98.3159 92.9004 99.3394 92.894 100.362C92.894 100.655 92.8772 101.036 92.8056 101.474C92.6908 102.168 92.4938 102.684 92.399 102.914C92.2873 103.183 92.0704 103.7 91.6353 104.27C91.3236 104.678 91.0181 104.959 90.7632 105.193C90.4999 105.435 90.2629 105.624 90.0838 105.76C88.8736 106.686 87.6633 107.613 86.4531 108.54C86.8512 108.193 87.0872 107.859 87.2863 107.579C87.4421 107.358 87.9119 106.666 88.23 105.635C88.3322 105.306 88.4438 104.857 88.5049 104.309C88.5271 93.6195 88.5502 82.9289 88.5723 72.2382C88.5692 71.9829 88.5576 71.6189 88.5123 71.1862C88.3385 69.4991 87.8266 68.2783 87.4811 67.4711C87.2062 66.8275 86.531 65.3693 85.2608 63.7581C84.6909 63.0343 83.6945 61.7902 82.0092 60.619C80.8611 59.8214 79.7888 59.3318 78.9957 59.03L22.2817 36.7867C21.7298 36.5714 20.984 36.2538 20.1298 35.8128C19.2903 35.3791 18.4445 34.9412 17.5818 34.2733C16.7792 33.6508 15.1751 32.4089 14.4441 30.2311C14.2176 29.5579 14.1196 28.9248 14.0859 28.3793V28.3709C14.087 28.0575 14.087 27.7441 14.088 27.4308C14.1091 27.2398 14.1502 26.9644 14.2366 26.6415C14.4262 25.924 14.7727 25.2086 15.4552 24.3477C16.6339 22.8631 18.0885 21.8607 18.8753 21.3679C20.332 20.4574 21.5591 20.0037 22.5187 19.6555C22.9116 19.513 24.7443 18.8588 27.4861 18.4188C31.0188 17.8522 33.8227 17.9989 34.8908 18.0759C36.1 18.1635 38.6184 18.4157 41.6867 19.3273C42.9738 19.7103 44.0429 20.1155 44.8392 20.4447C62.995 27.57 81.1518 34.6954 99.3087 41.8207C99.8964 42.0244 100.674 42.3251 101.553 42.7587C102.455 43.203 103.63 43.7907 104.9 44.8595C106.245 45.9917 107.033 47.1059 107.606 47.9279C108.175 48.7445 108.813 49.6709 109.346 51.0563C109.469 51.376 109.993 52.7762 110.179 54.7208C110.249 55.4626 110.252 56.0957 110.238 56.5673Z" fill="white" stroke="black" stroke-width="0.517763" stroke-linecap="round" stroke-linejoin="round"/>
<path d="M17.5855 34.2732C18.4482 34.9411 19.294 35.379 20.1335 35.8127C20.9877 36.2537 21.7334 36.5713 22.2854 36.7866C41.19 44.201 60.0947 51.6155 78.9994 59.0299C79.7925 59.3317 80.8648 59.8213 82.0129 60.619C83.6982 61.7902 84.6946 63.0342 85.2644 63.7569C86.5347 65.3681 87.2099 66.8274 87.4848 67.471C87.8303 68.2771 88.3411 69.499 88.516 71.1851C88.5613 71.6188 88.5729 71.9817 88.575 72.2381C88.5529 82.9288 88.5307 93.6194 88.5076 104.309C88.4465 104.856 88.3338 105.305 88.2327 105.634C87.9146 106.665 87.4448 107.357 87.2889 107.578C87.0909 107.857 86.8539 108.192 86.4557 108.539C85.6478 109.244 84.7862 109.469 84.2101 109.612C84.0131 109.661 83.1357 109.87 81.9497 109.783C81.0302 109.716 80.3834 109.505 79.2954 109.15C78.4727 108.882 77.7618 108.597 77.1761 108.339C58.7855 101.112 40.3959 93.8843 22.0052 86.6576C21.5333 86.4762 20.9298 86.2219 20.2504 85.8726C19.1465 85.3071 18.3829 84.7721 18.1986 84.6413C17.8299 84.3806 17.2095 83.9364 16.4933 83.2411C15.8476 82.6133 15.3778 82.1575 14.9365 81.3936C14.8185 81.1889 14.3477 80.35 14.1233 79.1292C14.0043 78.4845 13.9906 77.9306 14.0043 77.5307C14.0327 60.831 14.0601 44.1303 14.0886 27.4307C14.0454 28.1123 14.0707 29.1147 14.4456 30.231C15.1766 32.4078 16.7798 33.6507 17.5834 34.2732H17.5855Z" fill="#EBECEE" stroke="black" stroke-width="0.517763" stroke-linecap="round" stroke-linejoin="round"/>
<path d="M17.5855 34.2742C18.4482 34.9421 19.294 35.38 20.1335 35.8137C20.9877 36.2547 21.7334 36.5723 22.2854 36.7875C41.19 44.202 60.0947 51.6164 78.9994 59.0309C79.7925 59.3327 80.8648 59.8222 82.0129 60.6199C83.6982 61.7911 84.6946 63.0351 85.2644 63.7579C86.5347 65.3691 87.2099 66.8284 87.4848 67.472C87.8303 68.2781 88.3411 69.5 88.516 71.1861C88.5613 71.6197 88.5729 71.9827 88.575 72.2391C88.5529 82.9298 88.5307 93.6204 88.5076 104.31C88.4465 104.857 88.3338 105.306 88.2327 105.635C87.9146 106.666 87.4448 107.358 87.2889 107.579C87.0909 107.858 86.8539 108.193 86.4557 108.54C85.6478 109.245 84.7862 109.47 84.2101 109.613C84.0131 109.662 83.1357 109.871 81.9497 109.784C81.0302 109.717 80.3834 109.506 79.2954 109.151C78.4727 108.883 77.7618 108.598 77.1761 108.34C58.7855 101.113 40.3959 93.8852 22.0052 86.6586C21.5333 86.4771 20.9298 86.2228 20.2504 85.8736C19.1465 85.308 18.3829 84.7731 18.1986 84.6422C17.8299 84.3816 17.2095 83.9374 16.4933 83.2421C15.8476 82.6143 15.3778 82.1585 14.9365 81.3945C14.8185 81.1898 14.3477 80.351 14.1233 79.1302C14.0043 78.4855 13.9906 77.9316 14.0043 77.5317C14.0327 60.832 14.0601 44.1313 14.0886 27.4316C14.0454 28.1133 14.0707 29.1156 14.4456 30.232C15.1766 32.4087 16.7798 33.6517 17.5834 34.2742H17.5855Z" fill="#EBECEE" stroke="black" stroke-width="0.517763" stroke-linecap="round" stroke-linejoin="round"/>
<path d="M19.7495 20.8584C19.4683 21.0114 19.1765 21.1792 18.8753 21.367C18.0885 21.8597 16.6339 22.8621 15.4552 24.3467C14.7727 25.2077 14.4262 25.9231 14.2366 26.6405C14.1502 26.9634 14.1091 27.2388 14.088 27.4298C14.088 27.7432 14.088 28.0565 14.0859 28.3699V28.3784C14.1196 28.9239 14.2176 29.5569 14.4441 30.2301C15.1751 32.4079 16.7792 33.6498 17.5818 34.2724C18.4445 34.9403 19.2903 35.3781 20.1298 35.8118C20.984 36.2528 21.7298 36.5704 22.2817 36.7857L78.9957 59.029C79.7888 59.3308 80.8611 59.8204 82.0092 60.6181C83.6945 61.7893 84.6909 63.0333 85.2607 63.7571C86.531 65.3683 87.2062 66.8265 87.4811 67.4701C87.8266 68.2773 88.3385 69.4981 88.5123 71.1853C88.5576 71.6179 88.5692 71.9819 88.5723 72.2372C88.5502 82.9279 88.527 93.6185 88.5049 104.308C88.4438 104.856 88.3322 105.305 88.23 105.634C87.9119 106.665 87.4421 107.357 87.2862 107.578C87.0872 107.858 86.8512 108.192 86.4531 108.539C87.6633 107.612 88.8736 106.685 90.0838 105.759C90.2629 105.623 90.4999 105.434 90.7632 105.192C91.0181 104.958 91.3236 104.677 91.6353 104.269C92.0703 103.699 92.2873 103.182 92.399 102.913C92.4938 102.683 92.6907 102.167 92.8055 101.473C92.8772 101.035 92.8951 100.654 92.894 100.361C92.9003 99.3384 92.9077 98.3149 92.914 97.2925V69.7155C92.9225 69.228 92.9088 68.6128 92.835 67.908C92.7129 66.741 92.4832 65.8779 92.4179 65.6437C92.0356 64.2477 91.511 63.2622 91.1887 62.664C90.9191 62.1628 90.2608 61.0064 89.1474 59.7244C88.6777 59.1841 88.0225 58.4392 86.9861 57.6595C86.1097 57 85.3408 56.6022 84.8847 56.368C84.1569 55.9955 83.5102 55.7338 83.0109 55.5534C64.2579 48.1822 45.5049 40.81 26.7519 33.4377C25.864 33.1529 25.1667 32.8078 24.6706 32.525C24.3577 32.3457 23.908 32.0861 23.3813 31.6503C22.9758 31.3148 22.5492 30.9603 22.1616 30.3694C21.9541 30.0518 21.6149 29.5337 21.5075 28.7909C21.3527 27.721 21.7772 26.8748 21.9741 26.4971C22.3965 25.6825 22.9674 25.2193 23.4603 24.8183C23.6426 24.6706 24.0755 24.334 24.9381 23.8845" fill="white"/>
<path d="M19.7495 20.8584C19.4683 21.0114 19.1765 21.1792 18.8753 21.367C18.0885 21.8597 16.6339 22.8621 15.4552 24.3467C14.7727 25.2077 14.4262 25.9231 14.2366 26.6405C14.1502 26.9634 14.1091 27.2388 14.088 27.4298C14.088 27.7432 14.088 28.0565 14.0859 28.3699V28.3784C14.1196 28.9239 14.2176 29.5569 14.4441 30.2301C15.1751 32.4079 16.7792 33.6498 17.5818 34.2724C18.4445 34.9403 19.2903 35.3781 20.1298 35.8118C20.984 36.2528 21.7298 36.5704 22.2817 36.7857L78.9957 59.029C79.7888 59.3308 80.8611 59.8204 82.0092 60.6181C83.6945 61.7893 84.6909 63.0333 85.2607 63.7571C86.531 65.3683 87.2062 66.8265 87.4811 67.4701C87.8266 68.2773 88.3385 69.4981 88.5123 71.1853C88.5576 71.6179 88.5692 71.9819 88.5723 72.2372C88.5502 82.9279 88.527 93.6185 88.5049 104.308C88.4438 104.856 88.3322 105.305 88.23 105.634C87.9119 106.665 87.4421 107.357 87.2862 107.578C87.0872 107.858 86.8512 108.192 86.4531 108.539C87.6633 107.612 88.8736 106.685 90.0838 105.759C90.2629 105.623 90.4999 105.434 90.7632 105.192C91.0181 104.958 91.3236 104.677 91.6353 104.269C92.0703 103.699 92.2873 103.182 92.399 102.913C92.4938 102.683 92.6907 102.167 92.8055 101.473C92.8772 101.035 92.8951 100.654 92.894 100.361C92.9003 99.3384 92.9077 98.3149 92.914 97.2925V69.7155C92.9225 69.228 92.9088 68.6128 92.835 67.908C92.7129 66.741 92.4832 65.8779 92.4179 65.6437C92.0356 64.2477 91.511 63.2622 91.1887 62.664C90.9191 62.1628 90.2608 61.0064 89.1474 59.7244C88.6777 59.1841 88.0225 58.4392 86.9861 57.6595C86.1097 57 85.3408 56.6022 84.8847 56.368C84.1569 55.9955 83.5102 55.7338 83.0109 55.5534C64.2579 48.1822 45.5049 40.81 26.7519 33.4377C25.864 33.1529 25.1667 32.8078 24.6706 32.525C24.3577 32.3457 23.908 32.0861 23.3813 31.6503C22.9758 31.3148 22.5492 30.9603 22.1616 30.3694C21.9541 30.0518 21.6149 29.5337 21.5075 28.7909C21.3527 27.721 21.7772 26.8748 21.9741 26.4971C22.3965 25.6825 22.9674 25.2193 23.4603 24.8183C23.6426 24.6706 24.0755 24.334 24.9381 23.8845" stroke="black" stroke-width="0.517763" stroke-linecap="round" stroke-linejoin="round"/>
<path d="M113.987 78.6509C113.975 78.7322 113.954 78.8736 113.878 79.0308C113.812 79.169 113.725 79.264 113.552 79.4476C113.447 79.5594 113.354 79.6481 113.287 79.7082C106.017 85.3268 98.7445 90.9454 91.4736 96.563C91.2935 96.6832 91.028 96.8405 90.6847 96.9724C90.2233 97.1517 89.8452 97.2003 89.4512 97.2488C88.853 97.3216 88.3842 97.3026 88.2094 97.2931C87.7259 97.2667 87.0223 97.1771 86.2092 96.8837C82.3035 95.3422 78.3979 93.7995 74.4912 92.258C74.3658 92.2232 74.1963 92.1673 74.0046 92.0797C73.6106 91.8982 73.3599 91.6882 73.2946 91.6323C73.1093 91.474 72.9565 91.3432 72.8375 91.1111C72.7395 90.9222 72.7048 90.746 72.689 90.6574C72.6553 90.478 72.6532 90.325 72.6584 90.2142C72.6711 85.3764 72.6827 80.5386 72.6943 75.7018C72.7037 75.7936 72.7248 75.8886 72.7596 75.9846C72.8881 76.3339 73.1493 76.528 73.4284 76.7369C73.677 76.9216 73.9119 77.0303 74.0751 77.0936C77.9102 78.6003 81.7453 80.106 85.5793 81.6127C86.0501 81.8216 86.4736 81.9535 86.8085 82.0401C87.5616 82.2321 88.1557 82.2616 88.3358 82.268C88.5939 82.2775 88.9983 82.2912 89.525 82.2089C89.7504 82.173 90.1538 82.1076 90.6457 81.9103C91.0575 81.7457 91.3546 81.5589 91.5673 81.4239C91.8106 81.2698 92.0076 81.1221 92.1519 81.0071C99.0426 75.6976 105.932 70.3871 112.822 65.0777C112.908 65.0154 113.03 64.9226 113.168 64.8002C113.419 64.5786 113.592 64.4245 113.724 64.1745C113.773 64.0816 113.879 63.8748 113.892 63.5889C113.926 68.4963 113.961 73.4038 113.994 78.3123C114.002 78.3967 114.006 78.5138 113.987 78.6509Z" fill="#EBECEE" stroke="black" stroke-width="0.517763" stroke-linecap="round" stroke-linejoin="round"/>
<path d="M73.3076 74.2941C78.393 76.2756 83.4773 78.2561 88.5626 80.2377C95.7872 74.6718 103.012 69.1049 110.237 63.5391C110.237 62.7351 110.24 61.93 110.241 61.126C110.842 61.3349 111.444 61.5427 112.045 61.7517C112.225 61.816 112.487 61.9226 112.789 62.0893C113.213 62.3246 113.465 62.4639 113.661 62.7646C113.723 62.8596 113.918 63.1687 113.899 63.5887C113.885 63.8746 113.779 64.0825 113.73 64.1743C113.599 64.4243 113.425 64.5784 113.175 64.8C113.037 64.9224 112.915 65.0152 112.829 65.0785C105.939 70.388 99.0493 75.6974 92.1586 81.0069C92.0132 81.1229 91.8173 81.2696 91.574 81.4236C91.3612 81.5587 91.0642 81.7455 90.6524 81.9101C90.1605 82.1074 89.7581 82.1728 89.5317 82.2076C89.005 82.2899 88.6005 82.2773 88.3425 82.2667C88.1624 82.2604 87.5693 82.2308 86.8162 82.0388C86.4802 81.9533 86.0579 81.8214 85.587 81.6115C81.752 80.1058 77.9169 78.599 74.0829 77.0934C73.9196 77.0301 73.6847 76.9214 73.4361 76.7357C73.157 76.5278 72.8958 76.3326 72.7673 75.9834C72.5556 75.4073 72.8663 74.8554 72.9232 74.7541C73.0475 74.5326 73.2013 74.3827 73.3097 74.292L73.3076 74.2941Z" fill="white" stroke="black" stroke-width="0.517763" stroke-linecap="round" stroke-linejoin="round"/>
<path d="M61.9885 91.2758C61.7767 92.7289 61.3801 95.269 59.7202 97.9915C58.545 99.917 57.2009 101.175 56.6146 101.69C55.9254 102.294 55.2888 102.748 54.798 103.068C52.4513 104.192 50.1046 105.315 47.7555 106.439C51.0019 104.564 52.6325 101.914 53.2764 100.839C54.94 98.06 55.3329 95.5346 55.5447 94.073C56.2057 89.5143 55.1358 85.9569 54.6425 84.3815C54.0353 82.4412 52.8344 79.4947 50.4156 76.5458C49.506 75.4367 47.66 73.2296 44.4883 71.4166C42.7366 70.4153 39.664 68.7125 35.442 68.8386C33.3977 68.8998 31.6876 69.3723 30.4463 69.8497C32.4208 68.8692 34.3953 67.8874 36.3686 66.9069C37.3859 66.5372 38.7888 66.1369 40.4927 65.9668C42.6668 65.7476 44.3622 65.9974 45.0673 66.121C47.6882 66.5813 49.5146 67.5716 50.6224 68.1812C51.2455 68.5264 53.6326 69.8889 56.0356 72.5122C56.6452 73.1782 58.0113 74.7512 59.282 77.0868C60.9125 80.0848 61.5699 82.8391 61.86 84.6263C62.0681 85.9092 62.4292 88.2534 61.9885 91.2758Z" fill="#FF535E"/>
<path d="M47.7561 106.684C47.6679 106.684 47.5835 106.636 47.5394 106.553C47.4782 106.437 47.5198 106.292 47.6336 106.227C50.8935 104.343 52.5302 101.611 53.0676 100.713C54.741 97.9191 55.107 95.3937 55.3041 94.0373C55.9712 89.4431 54.8377 85.8185 54.4104 84.4536C53.5205 81.6062 52.1127 78.9976 50.2276 76.7011C49.4319 75.7303 47.57 73.4583 44.3677 71.6295C42.7334 70.6955 39.6902 68.9572 35.4499 69.0833C33.7752 69.1335 32.1214 69.4689 30.535 70.0773C30.4125 70.1238 30.2754 70.0663 30.2228 69.9475C30.1702 69.8275 30.2216 69.688 30.3379 69.6292C31.6514 68.9768 32.9649 68.3243 34.2784 67.6718L36.2602 66.6876C36.2688 66.684 36.2774 66.6803 36.2859 66.6766C37.6337 66.187 39.0415 65.8662 40.4688 65.723C42.032 65.5651 43.6368 65.6202 45.1107 65.8797C47.816 66.3547 49.7196 67.4038 50.7417 67.9669C51.8508 68.5814 54.0371 69.9671 56.2173 72.3468C57.4524 73.6958 58.5872 75.2946 59.4979 76.9704C60.7918 79.3477 61.6683 81.911 62.1029 84.587C62.2926 85.7573 62.688 88.1909 62.2327 91.3112C62.0294 92.7055 61.65 95.3007 59.9301 98.1186C58.8589 99.874 57.625 101.129 56.7767 101.873C56.1989 102.381 55.5783 102.851 54.9319 103.273C54.9234 103.28 54.9136 103.284 54.9038 103.289C53.3405 104.039 51.7773 104.786 50.2141 105.534L47.8613 106.661C47.8271 106.677 47.7916 106.685 47.7561 106.685V106.684ZM35.8746 68.5863C40.0318 68.5863 43.1056 70.3441 44.61 71.2035C47.8907 73.0776 49.793 75.3986 50.6058 76.3902C52.5314 78.7356 53.9685 81.3993 54.8768 84.3079C55.3126 85.701 56.4707 89.4028 55.7876 94.1083C55.5856 95.499 55.2098 98.0868 53.4862 100.965C53.0761 101.65 52.043 103.376 50.1615 105.017C51.6672 104.296 53.1716 103.576 54.6773 102.855C55.2992 102.448 55.8965 101.994 56.4535 101.506C57.2749 100.784 58.4733 99.5656 59.5114 97.864C61.1787 95.1317 61.5484 92.6014 61.7467 91.2414C62.191 88.1958 61.8042 85.8124 61.6181 84.6666C61.1921 82.0445 60.334 79.5337 59.0658 77.2054C58.1734 75.5639 57.0619 73.9982 55.8537 72.6786C53.7213 70.3503 51.5851 68.9964 50.503 68.3965C49.5066 67.8469 47.6496 66.8235 45.0238 66.3632C44.0261 66.187 42.4348 66.018 40.5153 66.2114C39.132 66.3498 37.7696 66.6607 36.4634 67.1344L34.4938 68.1125C33.9846 68.3659 33.4753 68.6193 32.9661 68.8715C33.7789 68.7124 34.6028 68.6205 35.4315 68.5961C35.5796 68.5912 35.7265 68.5899 35.8722 68.5899L35.8746 68.5863Z" fill="black"/>
<path d="M48.2798 87.9927C45.6357 90.4972 42.9903 93.0031 40.3462 95.5089C38.1978 96.5286 36.0507 97.5495 33.9023 98.5692C38.4769 94.2358 43.0527 89.8999 47.6285 85.5664C47.8391 86.1271 48.1096 86.957 48.2798 87.9927Z" fill="#FF444F"/>
<path d="M33.9033 98.8138C33.825 98.8138 33.7479 98.7759 33.7013 98.7073C33.6328 98.6081 33.6475 98.4735 33.7344 98.3915L47.4606 85.3887C47.5206 85.3324 47.6038 85.3091 47.6834 85.3275C47.763 85.3458 47.8291 85.4034 47.8572 85.4793C48.1596 86.2811 48.3824 87.1135 48.5219 87.952C48.5354 88.0328 48.5072 88.1136 48.4485 88.1699C45.8043 90.6745 43.159 93.1803 40.5149 95.6861C40.4965 95.7033 40.4745 95.718 40.4512 95.729L34.0074 98.7893C33.9731 98.8052 33.9376 98.8126 33.9021 98.8126L33.9033 98.8138ZM47.5255 86.0007L35.1911 97.6864L40.2076 95.3042C42.8113 92.8376 45.4151 90.3709 48.0176 87.9043C47.9037 87.2616 47.7397 86.6226 47.5255 86.0007Z" fill="black"/>
<path d="M46.0357 97.2348C43.8715 99.6549 41.0609 100.101 40.4794 100.181C36.9882 100.665 34.4469 98.9609 33.8936 98.5691C36.0419 97.5494 38.189 96.5285 40.3374 95.5088C40.7414 95.7536 41.269 96.0401 41.9092 96.3081C42.1736 96.4171 42.9301 96.7219 43.9718 96.952C44.5117 97.0708 45.2082 97.1895 46.0369 97.2336L46.0357 97.2348Z" fill="#FF444F"/>
<path d="M39.2345 100.513C36.5402 100.513 34.5522 99.335 33.7541 98.7695C33.6831 98.7193 33.6439 98.6348 33.6513 98.5491C33.6586 98.4622 33.7113 98.3863 33.7896 98.3496L40.2334 95.2892C40.3081 95.2537 40.395 95.2586 40.4648 95.3015C40.9532 95.5977 41.471 95.8609 42.0047 96.0849C42.6266 96.342 43.3256 96.5611 44.0246 96.7154C44.688 96.8622 45.3687 96.9553 46.0505 96.992C46.1448 96.9969 46.2268 97.0557 46.2635 97.1426C46.299 97.2295 46.2831 97.3299 46.2194 97.3997C44.1604 99.701 41.5433 100.282 40.5138 100.426C40.0718 100.487 39.6434 100.514 39.2333 100.514L39.2345 100.513ZM34.3906 98.6054C35.4581 99.2787 37.6407 100.328 40.4489 99.9385C41.367 99.8112 43.6182 99.3154 45.5058 97.44C44.972 97.3899 44.4408 97.3066 43.9205 97.1915C43.1934 97.0312 42.4662 96.8035 41.8175 96.5354C41.3021 96.32 40.8014 96.0678 40.3265 95.7875L34.3906 98.6066V98.6054Z" fill="black"/>
<path d="M34.4366 80.9463C34.2835 81.4923 33.8894 83.0494 34.0779 85.0766C34.1171 85.5075 34.1795 85.9102 34.2529 86.2799C32.347 88.0965 30.4422 89.9107 28.5362 91.7273C28.1298 90.7823 27.5888 89.2007 27.5569 87.1907C27.5373 86.0571 27.5312 83.8806 28.8717 81.6233C29.3515 80.8154 30.7764 78.6915 33.5111 77.6534C34.5088 77.2739 35.4844 77.1148 36.4001 77.0977C35.8076 77.8493 34.9458 79.142 34.4366 80.9463Z" fill="#FF444F"/>
<path d="M28.5377 91.9719C28.5218 91.9719 28.5046 91.9707 28.4887 91.967C28.4104 91.9511 28.3443 91.8972 28.3124 91.8238C27.6747 90.3413 27.338 88.7842 27.3135 87.1941C27.2952 86.1132 27.2572 83.8644 28.6625 81.4982C29.3101 80.4062 30.7901 78.4244 33.4256 77.4242C34.3719 77.0643 35.372 76.8721 36.3966 76.8526C36.497 76.8513 36.579 76.904 36.6206 76.9884C36.6622 77.0729 36.6524 77.1745 36.5937 77.2492C35.7074 78.3729 35.0611 79.6399 34.673 81.0134C34.4233 81.9009 34.1613 83.3221 34.3229 85.0543C34.3596 85.4472 34.4172 85.8439 34.4943 86.2331C34.5102 86.3152 34.4845 86.4008 34.4233 86.4584C32.5271 88.2652 30.6334 90.0696 28.7372 91.8764L28.7066 91.9058C28.6601 91.9499 28.6001 91.9731 28.5377 91.9731V91.9719ZM35.8923 77.3679C35.1027 77.4304 34.3339 77.603 33.5995 77.8821C31.1035 78.8295 29.6994 80.711 29.0836 81.7479C27.7493 83.9954 27.7861 86.1511 27.8032 87.1867C27.8252 88.5957 28.1019 89.979 28.627 91.3035C30.4143 89.6007 32.2003 87.8992 33.9887 86.1952C33.9202 85.8328 33.8688 85.4644 33.8357 85.0984C33.6668 83.2915 33.9422 81.8067 34.203 80.88C34.5604 79.613 35.1284 78.4341 35.8923 77.3679Z" fill="black"/>
<path d="M54.6439 84.3815C54.0368 82.4413 52.8359 79.4936 50.417 76.5458C49.5075 75.438 47.6615 73.2296 44.4885 71.4167C42.738 70.4166 39.6655 68.7126 35.441 68.8387C32.186 68.9366 29.7781 70.075 28.7658 70.6173C28.0803 70.9833 25.7973 72.2736 23.7909 74.8957C21.7368 77.5802 21.1027 80.1901 20.7747 81.5966C20.0353 84.7782 20.3046 87.3183 20.4649 88.7101C20.6131 90.0016 21.0391 92.7216 22.5007 95.8493C24.4189 99.9526 27.0226 102.411 27.7583 103.079C29.3142 104.493 32.2154 107.128 36.883 108.028C38.352 108.311 42.8298 109.107 47.3995 106.636C50.8834 104.754 52.6094 101.95 53.2766 100.836C54.9402 98.0588 55.3319 95.5322 55.5449 94.0706C56.2072 89.5131 55.1361 85.9546 54.6427 84.3791L54.6439 84.3815Z" fill="#FF7E88"/>
<path d="M54.6439 84.3815C54.0368 82.4413 52.8359 79.4936 50.417 76.5458C49.5075 75.438 47.6615 73.2296 44.4885 71.4167C42.738 70.4166 39.6655 68.7126 35.441 68.8387C32.186 68.9366 29.7781 70.075 28.7658 70.6173C28.0803 70.9833 25.7973 72.2736 23.7909 74.8957C21.7368 77.5802 21.1027 80.1901 20.7747 81.5966C20.0353 84.7782 20.3046 87.3183 20.4649 88.7101C20.6131 90.0016 21.0391 92.7216 22.5007 95.8493C24.4189 99.9526 27.0226 102.411 27.7583 103.079C29.3142 104.493 32.2154 107.128 36.883 108.028C38.352 108.311 42.8298 109.107 47.3995 106.636C50.8834 104.754 52.6094 101.95 53.2766 100.836C54.9402 98.0588 55.3319 95.5322 55.5449 94.0706C56.2072 89.5131 55.1361 85.9546 54.6427 84.3791L54.6439 84.3815Z" stroke="#0E0E0E" stroke-width="0.6"/>
<path d="M34.9478 92.801L31.8421 90.1359C30.9858 89.401 29.6978 89.491 28.9521 90.3378C28.1889 91.2043 28.2861 92.5285 29.1674 93.2744L35.1083 98.3021C35.2436 98.4166 35.4459 98.4007 35.5616 98.2666L47.1331 84.8565C47.8568 84.0179 47.7848 82.7563 46.9702 82.0055C46.114 81.2162 44.7736 81.2963 44.0173 82.1817L34.9478 92.801Z" fill="#FF444F"/>
<path d="M34.9468 92.801L31.8411 90.1359C30.9848 89.401 29.6969 89.491 28.9511 90.3378C28.188 91.2043 28.2851 92.5285 29.1664 93.2744L35.1073 98.3021C35.2426 98.4166 35.4449 98.4007 35.5607 98.2666L47.1321 84.8565C47.8559 84.0179 47.7838 82.7563 46.9693 82.0055C46.1131 81.2162 44.7726 81.2963 44.0164 82.1817L34.9468 92.801Z" stroke="#0E0E0E" stroke-width="0.6"/>
</svg>
