<svg xmlns="http://www.w3.org/2000/svg" width="97" height="97" fill="none"><g clip-path="url(#a)"><path fill="#9498A2" d="M60.23 22.2a6 6 0 0 0-6-6H6.5a6 6 0 0 0-6 6v68.3a6 6 0 0 0 6 6h47.73a6 6 0 0 0 6-6z"/><path fill="#CED0D6" d="M59.3.5H24.62a6 6 0 0 0-6 6v68.23a6 6 0 0 0 6 6h47.76a6 6 0 0 0 6-6V19.58z"/><path fill="#5C616D" d="M59.3 19.58h19.08L59.3.5z"/><path fill="#F6F7F8" d="M66.91 48.52H30.09v4.38h36.82zM51.91 39.45H30.09v4.38h21.82zM66.91 57.59H30.09v4.38h36.82zM66.91 66.66H30.09v4.38h36.82zM37.53 19.18c-.6 0-.93-.48-.93-1.37h.01c0-.92.36-1.35.92-1.35s.94.41.94 1.35-.34 1.37-.94 1.37M44.44 23.33c-.6 0-.93-.48-.93-1.37h.01c0-.91.36-1.35.92-1.35s.94.41.94 1.35-.34 1.37-.94 1.37"/><path fill="#F6F7F8" fill-rule="evenodd" d="M40.57 8.53h.89c5.788 0 10.48 4.692 10.48 10.48v.89c0 5.788-4.692 10.48-10.48 10.48h-.89c-5.788 0-10.48-4.692-10.48-10.48v-.89c0-5.788 4.692-10.48 10.48-10.48m-3.06 11.89c1.54 0 2.43-1.07 2.43-2.61l.01.01c0-1.7-1-2.58-2.42-2.58-1.58 0-2.44 1.13-2.44 2.58 0 1.71.96 2.6 2.42 2.6m5.51-5.04-5.53 9.01h1.43l5.54-9.01zm1.4 9.19c1.54 0 2.43-1.07 2.43-2.61l.01.01c0-1.7-1-2.58-2.42-2.58-1.58 0-2.44 1.13-2.44 2.58 0 1.7.96 2.6 2.42 2.6" clip-rule="evenodd"/><path fill="#FF444F" d="M76.5 69.77c11.046 0 20-8.954 20-20s-8.954-20-20-20-20 8.954-20 20 8.954 20 20 20"/><path fill="#fff" fill-rule="evenodd" d="M75.009 39.304a9.32 9.32 0 1 0 0 18.64 9.28 9.28 0 0 0 5.677-1.928l4.22 4.22 2.405-2.404-4.348-4.348a9.32 9.32 0 0 0-7.954-14.18m-5.92 9.32a5.92 5.92 0 1 1 11.84 0 5.92 5.92 0 0 1-11.84 0" clip-rule="evenodd"/></g><defs><clipPath id="a"><path fill="#fff" d="M.5.5h96v96H.5z"/></clipPath></defs></svg>