<svg width="128" height="128" viewBox="0 0 128 128" fill="none" xmlns="http://www.w3.org/2000/svg">
<rect x="19" y="31" width="94" height="74" rx="10" fill="#85ACB0"/>
<rect x="19" y="27" width="94" height="74" rx="8" fill="#E0F0F0"/>
<path fill-rule="evenodd" clip-rule="evenodd" d="M28.4688 94.1259L29.235 92.2784C29.468 92.3751 29.7251 92.4294 30 92.4294H31.5V94.4294H30C29.4576 94.4294 28.9405 94.3215 28.4688 94.1259ZM100.5 94.4294V92.4294H102C102.275 92.4294 102.532 92.3751 102.765 92.2784L103.531 94.1259C103.06 94.3215 102.542 94.4294 102 94.4294H100.5ZM106 39.0405H104V37.5723C104 37.2974 103.946 37.0403 103.849 36.8072L105.696 36.0411C105.892 36.5127 106 37.0299 106 37.5723V39.0405ZM31.5 33.5723H30C29.4576 33.5723 28.9405 33.6802 28.4688 33.8758L29.235 35.7232C29.468 35.6266 29.7251 35.5723 30 35.5723H31.5V33.5723ZM26 88.9612H28V90.4294C28 90.7043 28.0543 90.9614 28.151 91.1945L26.3035 91.9606C26.1079 91.4889 26 90.9718 26 90.4294V88.9612ZM26 86.0246H28V83.0881H26V86.0246ZM26 80.1516H28V77.2151H26V80.1516ZM26 74.2786H28V71.3421H26V74.2786ZM26 68.4056H28V65.4691H26V68.4056ZM26 62.5326H28V59.5961H26V62.5326ZM26 56.6596H28V53.7231H26V56.6596ZM26 50.7865H28V47.85H26V50.7865ZM26 44.9135H28V41.977H26V44.9135ZM26 39.0405H28V37.5723C28 37.2974 28.0543 37.0403 28.151 36.8072L26.3035 36.0411C26.1079 36.5127 26 37.0299 26 37.5723V39.0405ZM34.5 33.5723V35.5723H37.5V33.5723H34.5ZM40.5 33.5723V35.5723H43.5V33.5723H40.5ZM46.5 33.5723V35.5723H49.5V33.5723H46.5ZM52.5 33.5723V35.5723H55.5V33.5723H52.5ZM58.5 33.5723V35.5723H61.5V33.5723H58.5ZM64.5 33.5723V35.5723H67.5V33.5723H64.5ZM70.5 33.5723V35.5723H73.5V33.5723H70.5ZM76.5 33.5723V35.5723H79.5V33.5723H76.5ZM82.5 33.5723V35.5723H85.5V33.5723H82.5ZM88.5 33.5723V35.5723H91.5V33.5723H88.5ZM94.5 33.5723V35.5723H97.5V33.5723H94.5ZM100.5 33.5723V35.5723H102C102.275 35.5723 102.532 35.6266 102.765 35.7232L103.531 33.8758C103.06 33.6802 102.542 33.5723 102 33.5723H100.5ZM106 41.977H104V44.9135H106V41.977ZM106 47.85H104V50.7866H106V47.85ZM106 53.7231H104V56.6596H106V53.7231ZM106 59.5961H104V62.5326H106V59.5961ZM106 65.4691H104V68.4056H106V65.4691ZM106 71.3421H104V74.2786H106V71.3421ZM106 77.2151H104V80.1516H106V77.2151ZM106 83.0881H104V86.0247H106V83.0881ZM106 88.9612H104V90.4294C104 90.7043 103.946 90.9614 103.849 91.1945L105.696 91.9606C105.892 91.4889 106 90.9718 106 90.4294V88.9612ZM97.5 94.4294V92.4294H94.5V94.4294H97.5ZM91.5 94.4294V92.4294H88.5V94.4294H91.5ZM85.5 94.4294V92.4294H82.5V94.4294H85.5ZM79.5 94.4294V92.4294H76.5V94.4294H79.5ZM73.5 94.4294V92.4294H70.5V94.4294H73.5ZM67.5 94.4294V92.4294H64.5V94.4294H67.5ZM61.5 94.4294V92.4294H58.5V94.4294H61.5ZM55.5 94.4294V92.4294H52.5V94.4294H55.5ZM49.5 94.4294V92.4294H46.5V94.4294H49.5ZM43.5 94.4294V92.4294H40.5V94.4294H43.5ZM37.5 94.4294V92.4294H34.5V94.4294H37.5Z" fill="#C1DBDB"/>
<path d="M19 54H57C59.2091 54 61 55.7909 61 58V74C61 76.2091 59.2091 78 57 78H19V54Z" fill="#C1DBDB"/>
<rect x="13" y="52" width="46" height="24" rx="4" fill="#CCE3E3"/>
<path d="M53.7617 64C53.7617 67.3137 51.0754 70 47.7617 70C44.448 70 41.7617 67.3137 41.7617 64C41.7617 60.6863 44.448 58 47.7617 58C51.0754 58 53.7617 60.6863 53.7617 64Z" fill="#85ACB0"/>
<path d="M120.882 46C124.003 46 125.922 42.5858 124.299 39.9202L103.417 5.6133C101.858 3.05302 98.1416 3.05302 96.5832 5.6133L75.7007 39.9202C74.0782 42.5858 75.997 46 79.1175 46H120.882Z" fill="#FFAE26"/>
<path fill-rule="evenodd" clip-rule="evenodd" d="M100.114 29.83L100.115 29.8299C100.52 29.8022 100.882 29.6151 101.141 29.3353C101.456 28.994 101.523 28.5516 101.549 28.3781L101.554 28.3465L102.447 22.8044C102.482 22.5852 102.5 22.3637 102.5 22.1417V19.2301C102.5 18.5233 102.331 17.4035 101.343 16.8518C100.983 16.6504 100.52 16.4939 99.9694 16.5002C99.4394 16.5055 98.9946 16.6598 98.6459 16.856C97.6653 17.4079 97.5 18.5215 97.5 19.2219V22.1363C97.5 22.3627 97.5185 22.5888 97.5552 22.8121L98.465 28.3474L98.47 28.379C98.4971 28.5536 98.5663 28.9989 98.886 29.3403C99.1908 29.6657 99.6358 29.8617 100.114 29.83Z" fill="white"/>
<path fill-rule="evenodd" clip-rule="evenodd" d="M97.5 36.7725V37.2275C97.5 37.7998 97.6747 38.4005 98.1477 38.854C98.6176 39.3044 99.2678 39.5 99.9992 39.5C100.731 39.5 101.382 39.3042 101.852 38.8538C102.325 38.4003 102.5 37.7996 102.5 37.2275V36.7725C102.5 36.1999 102.325 35.5989 101.852 35.1454C101.381 34.695 100.731 34.5 99.9992 34.5C99.2681 34.5 98.6179 34.6952 98.1478 35.1456C97.6746 35.5991 97.5 36.2 97.5 36.7725Z" fill="white"/>
</svg>
