<svg xmlns="http://www.w3.org/2000/svg" width="97" height="97" fill="none"><g clip-path="url(#a)"><path fill="#9498A2" d="M6.5.5a6 6 0 0 0-6 6v74.28h5.34a3.05 3.05 0 0 1 3.04-2.93c1.64 0 2.97 1.3 3.04 2.93h4.63a3.05 3.05 0 0 1 3.04-2.93c1.64 0 2.97 1.3 3.04 2.93h5.11a3.05 3.05 0 0 1 3.04-2.93c1.64 0 2.97 1.3 3.04 2.93h5.11a3.05 3.05 0 0 1 3.04-2.93c1.64 0 2.97 1.3 3.04 2.93h5.11a3.05 3.05 0 0 1 3.04-2.93c1.64 0 2.97 1.3 3.04 2.93h5.34V6.5a6 6 0 0 0-6-6z"/><path fill="#CED0D6" d="M21.71 16.22a6 6 0 0 0-6 6V96.5h5.34a3.05 3.05 0 0 1 3.04-2.93c1.64 0 2.97 1.3 3.04 2.93h4.63a3.05 3.05 0 0 1 3.04-2.93c1.64 0 2.97 1.3 3.04 2.93h5.11a3.05 3.05 0 0 1 3.04-2.93c1.64 0 2.97 1.3 3.04 2.93h5.11a3.05 3.05 0 0 1 3.04-2.93c1.64 0 2.97 1.3 3.04 2.93h5.11a3.05 3.05 0 0 1 3.04-2.93c1.64 0 2.97 1.3 3.04 2.93h5.34V22.22a6 6 0 0 0-6-6z"/><path fill="#fff" d="M35.19 38.27c0-2.01-1.06-3.15-3.88-3.94-2.02-.57-2.47-.94-2.47-1.77 0-.58.34-1.3 1.56-1.3 1.44 0 1.69.85 1.82 1.37h2.68c-.14-1.47-.98-2.92-3.32-3.28v-1.21h-2.25v1.23c-1.79.34-3.19 1.53-3.19 3.44 0 1.78.93 2.95 4.12 3.87 1.75.5 2.24.95 2.24 1.88 0 .76-.45 1.43-1.84 1.43-1.13 0-1.88-.61-2.1-1.59h-2.68c.15 1.82 1.4 3.16 3.58 3.49v1.52h2.26v-1.52c2.07-.31 3.46-1.5 3.46-3.63zM66.6 48.95H25.89v5.09H66.6zM66.6 59.12H25.89v5.09H66.6zM66.6 69.3H25.89v5.09H66.6zM66.6 79.48H25.89v5.09H66.6z"/><path fill="#FF444F" d="M76.5 68.5c11.046 0 20-8.954 20-20s-8.954-20-20-20-20 8.954-20 20 8.954 20 20 20"/><path fill="#fff" fill-rule="evenodd" d="m73.58 51.502 10.256-10.247 2.828 2.83-13.085 13.073-7.243-7.244 2.828-2.828z" clip-rule="evenodd"/></g><defs><clipPath id="a"><path fill="#fff" d="M.5.5h96v96H.5z"/></clipPath></defs></svg>