<svg width="97" height="97" viewBox="0 0 97 97" fill="none" xmlns="http://www.w3.org/2000/svg">
<g clip-path="url(#clip0_1833_14433)">
<path d="M16.24 51.63H0.5V88.04H16.24V51.63Z" fill="#5C616D"/>
<path d="M80.61 80.29H55.43C54.1 80.29 52.82 79.76 51.88 78.82L43.15 70.09C42.71 69.65 42.51 69.03 42.63 68.4C42.91 66.9 44.85 66.42 45.92 67.5L52.49 74.07C54.44 76.02 57.08 77.11 59.83 77.11H67.33C68.96 77.11 69.78 75.14 68.63 73.98L49.67 55.01C47.49 52.83 44.54 51.61 41.47 51.61H16.27V84.22H23.6L35.59 94.03C37.52 95.61 39.93 96.47 42.41 96.48H69.55C73.43 96.48 77.01 94.42 78.97 91.07L82.92 84.3C83.96 82.51 82.67 80.29 80.61 80.29Z" fill="#CED0D6"/>
<path d="M76.5 56.79C87.5457 56.79 96.5 47.8357 96.5 36.79C96.5 25.7443 87.5457 16.79 76.5 16.79C65.4543 16.79 56.5 25.7443 56.5 36.79C56.5 47.8357 65.4543 56.79 76.5 56.79Z" fill="#FF444F"/>
<path d="M83.36 40.45C83.36 37.48 81.8 35.81 77.64 34.65C74.66 33.81 74 33.27 74 32.05C74 31.19 74.51 30.14 76.3 30.14C78.43 30.14 78.79 31.39 78.99 32.16H82.94C82.73 29.99 81.5 27.85 78.04 27.33V25.54H74.73V27.35C72.09 27.85 70.02 29.6 70.02 32.42C70.02 35.04 71.39 36.77 76.09 38.12C78.67 38.86 79.39 39.52 79.39 40.89C79.39 42 78.73 42.99 76.67 42.99C75.01 42.99 73.9 42.08 73.58 40.65H69.63C69.85 43.34 71.69 45.3 74.91 45.79V48.03H78.24V45.79C81.29 45.33 83.36 43.59 83.36 40.45Z" fill="white"/>
<path d="M84.39 0.5H78.7V11.47H84.39V0.5Z" fill="#CED0D6"/>
<path d="M74.3 0.5H68.61V11.47H74.3V0.5Z" fill="#CED0D6"/>
</g>
<defs>
<clipPath id="clip0_1833_14433">
<rect width="96" height="96" fill="white" transform="translate(0.5 0.5)"/>
</clipPath>
</defs>
</svg>
