<svg width="97" height="97" viewBox="0 0 97 97" fill="none" xmlns="http://www.w3.org/2000/svg">
<g clip-path="url(#clip0_1803_62555)">
<path d="M8.52 42.46H0.5V47.46H8.52V42.46Z" fill="#414652"/>
<path d="M21.09 42.46H13.07V47.46H21.09V42.46Z" fill="#414652"/>
<path d="M33.66 42.46H25.64V47.46H33.66V42.46Z" fill="#414652"/>
<path d="M46.23 42.46H38.21V47.46H46.23V42.46Z" fill="#414652"/>
<path d="M58.79 42.46H50.77V47.46H58.79V42.46Z" fill="#414652"/>
<path d="M71.36 42.46H63.34V47.46H71.36V42.46Z" fill="#414652"/>
<path d="M83.93 42.46H75.91V47.46H83.93V42.46Z" fill="#414652"/>
<path d="M96.5 42.46H88.48V47.46H96.5V42.46Z" fill="#414652"/>
<path d="M73.26 0.5C73.26 2.16 71.92 3.5 70.26 3.5C68.6 3.5 67.26 2.16 67.26 0.5H62.26C62.26 2.16 60.92 3.5 59.26 3.5C57.6 3.5 56.26 2.16 56.26 0.5H51.26C51.26 2.16 49.92 3.5 48.26 3.5C46.6 3.5 45.26 2.16 45.26 0.5H40.26C40.26 2.16 38.92 3.5 37.26 3.5C35.6 3.5 34.26 2.16 34.26 0.5H29.73C29.73 2.16 28.39 3.5 26.73 3.5C25.07 3.5 23.73 2.16 23.73 0.5H18.49V79.38H23.74C23.81 77.78 25.11 76.5 26.73 76.5C28.35 76.5 29.65 77.78 29.72 79.38H34.27C34.34 77.78 35.64 76.5 37.26 76.5C38.88 76.5 40.18 77.78 40.25 79.38H45.28C45.35 77.78 46.65 76.5 48.27 76.5C49.89 76.5 51.19 77.78 51.26 79.38H56.29C56.36 77.78 57.66 76.5 59.28 76.5C60.9 76.5 62.2 77.78 62.27 79.38H67.3C67.37 77.78 68.67 76.5 70.29 76.5C71.91 76.5 73.21 77.78 73.28 79.38H78.53V0.5H73.26Z" fill="#5C616D"/>
<path d="M37.64 22.16C37.64 20.18 36.6 19.06 33.83 18.29C31.85 17.73 31.41 17.37 31.41 16.56C31.41 15.99 31.75 15.29 32.94 15.29C34.36 15.29 34.6 16.12 34.73 16.64H37.36C37.22 15.19 36.4 13.77 34.1 13.42V12.23H31.89V13.44C30.13 13.77 28.75 14.94 28.75 16.82C28.75 18.56 29.67 19.72 32.8 20.62C34.52 21.11 35 21.56 35 22.47C35 23.21 34.56 23.87 33.19 23.87C32.08 23.87 31.34 23.27 31.13 22.31H28.5C28.64 24.1 29.88 25.41 32.02 25.74V27.23H34.24V25.74C36.27 25.44 37.64 24.27 37.64 22.17V22.16Z" fill="#9498A2"/>
<path d="M28.5 32.65H68.5V37.65H28.5V32.65Z" fill="#9498A2"/>
<path d="M28.5 42.65H68.5V47.65H28.5V42.65Z" fill="#9498A2"/>
<path d="M68.5 52.65H28.5V57.65H68.5V52.65Z" fill="#9498A2"/>
<path d="M28.5 62.65H68.5V67.65H28.5V62.65Z" fill="#9498A2"/>
<path d="M61 12.22C56.86 12.22 53.5 15.58 53.5 19.72C53.5 23.86 56.86 27.22 61 27.22C65.14 27.22 68.5 23.86 68.5 19.72C68.5 15.58 65.14 12.22 61 12.22ZM60.11 22.9L57.03 19.82L58.52 18.33L60.11 19.92L63.47 16.56L64.96 18.05L60.1 22.91L60.11 22.9Z" fill="#9498A2"/>
<path d="M74.87 96.5C86.8159 96.5 96.5 86.8159 96.5 74.87C96.5 62.9241 86.8159 53.24 74.87 53.24C62.9241 53.24 53.24 62.9241 53.24 74.87C53.24 86.8159 62.9241 96.5 74.87 96.5Z" fill="#FF444F"/>
<path d="M87.21 75.26C87.21 68.45 81.69 62.93 74.88 62.93C68.07 62.93 62.55 68.45 62.55 75.26V80.66H67.02L66.4 86.83H69.87V84.9H71.41V86.83H74.11V84.9H75.65V86.83H78.35V84.9H79.89V86.83H83.36L82.74 80.66H87.21V75.26ZM69.79 77.8C67.75 77.8 66.09 76.14 66.09 74.1H73.49C73.49 76.14 71.83 77.8 69.79 77.8ZM72.51 81.04L74.87 77.56L77.23 81.04H72.51ZM79.96 77.8C77.92 77.8 76.26 76.14 76.26 74.1H83.66C83.66 76.14 82 77.8 79.96 77.8Z" fill="white"/>
</g>
<defs>
<clipPath id="clip0_1803_62555">
<rect width="96" height="96" fill="white" transform="translate(0.5 0.5)"/>
</clipPath>
</defs>
</svg>
