<svg xmlns="http://www.w3.org/2000/svg" width="97" height="97" fill="none"><g clip-path="url(#a)"><path fill="#414652" d="M8.52 42.46H.5v5h8.02zM21.09 42.46h-8.02v5h8.02zM33.66 42.46h-8.02v5h8.02zM46.23 42.46h-8.02v5h8.02zM58.79 42.46h-8.02v5h8.02zM71.36 42.46h-8.02v5h8.02zM83.93 42.46h-8.02v5h8.02zM96.5 42.46h-8.02v5h8.02z"/><path fill="#5C616D" d="M73.26.5c0 1.66-1.34 3-3 3s-3-1.34-3-3h-5c0 1.66-1.34 3-3 3s-3-1.34-3-3h-5c0 1.66-1.34 3-3 3s-3-1.34-3-3h-5c0 1.66-1.34 3-3 3s-3-1.34-3-3h-4.53c0 1.66-1.34 3-3 3s-3-1.34-3-3h-5.24v78.88h5.25c.07-1.6 1.37-2.88 2.99-2.88s2.92 1.28 2.99 2.88h4.55c.07-1.6 1.37-2.88 2.99-2.88s2.92 1.28 2.99 2.88h5.03c.07-1.6 1.37-2.88 2.99-2.88s2.92 1.28 2.99 2.88h5.03c.07-1.6 1.37-2.88 2.99-2.88s2.92 1.28 2.99 2.88h5.03c.07-1.6 1.37-2.88 2.99-2.88s2.92 1.28 2.99 2.88h5.25V.5z"/><path fill="#9498A2" d="M37.64 22.16c0-1.98-1.04-3.1-3.81-3.87-1.98-.56-2.42-.92-2.42-1.73 0-.57.34-1.27 1.53-1.27 1.42 0 1.66.83 1.79 1.35h2.63c-.14-1.45-.96-2.87-3.26-3.22v-1.19h-2.21v1.21c-1.76.33-3.14 1.5-3.14 3.38 0 1.74.92 2.9 4.05 3.8 1.72.49 2.2.94 2.2 1.85 0 .74-.44 1.4-1.81 1.4-1.11 0-1.85-.6-2.06-1.56H28.5c.14 1.79 1.38 3.1 3.52 3.43v1.49h2.22v-1.49c2.03-.3 3.4-1.47 3.4-3.57zM28.5 32.65h40v5h-40zM28.5 42.65h40v5h-40zM68.5 52.65h-40v5h40zM28.5 62.65h40v5h-40zM61 12.22c-4.14 0-7.5 3.36-7.5 7.5s3.36 7.5 7.5 7.5 7.5-3.36 7.5-7.5-3.36-7.5-7.5-7.5m-.89 10.68-3.08-3.08 1.49-1.49 1.59 1.59 3.36-3.36 1.49 1.49-4.86 4.86z"/><path fill="#FF444F" d="M74.87 96.5c11.946 0 21.63-9.684 21.63-21.63s-9.684-21.63-21.63-21.63-21.63 9.684-21.63 21.63S62.924 96.5 74.87 96.5"/><path fill="#fff" d="M87.21 75.26c0-6.81-5.52-12.33-12.33-12.33s-12.33 5.52-12.33 12.33v5.4h4.47l-.62 6.17h3.47V84.9h1.54v1.93h2.7V84.9h1.54v1.93h2.7V84.9h1.54v1.93h3.47l-.62-6.17h4.47zM69.79 77.8c-2.04 0-3.7-1.66-3.7-3.7h7.4c0 2.04-1.66 3.7-3.7 3.7m2.72 3.24 2.36-3.48 2.36 3.48zm7.45-3.24c-2.04 0-3.7-1.66-3.7-3.7h7.4c0 2.04-1.66 3.7-3.7 3.7"/></g><defs><clipPath id="a"><path fill="#fff" d="M.5.5h96v96H.5z"/></clipPath></defs></svg>