<svg xmlns="http://www.w3.org/2000/svg" width="97" height="97" fill="none"><g clip-path="url(#a)"><path fill="#414652" d="M6.5 34.52a6 6 0 0 0-6 6V96.5l13.88-13.88h59.27a6 6 0 0 0 6-6v-36.1a6 6 0 0 0-6-6zm15.22 31.09c-3.1 0-5.61-2.51-5.61-5.61s2.51-5.61 5.61-5.61 5.61 2.51 5.61 5.61-2.51 5.61-5.61 5.61m18.35 0c-3.1 0-5.61-2.51-5.61-5.61s2.51-5.61 5.61-5.61 5.61 2.51 5.61 5.61-2.51 5.61-5.61 5.61m18.36 0c-3.1 0-5.61-2.51-5.61-5.61s2.51-5.61 5.61-5.61 5.61 2.51 5.61 5.61-2.51 5.61-5.61 5.61"/><path fill="#787D88" d="M37.4.5a6 6 0 0 0-6 6v44.98l11.41-11.41H90.5a6 6 0 0 0 6-6V6.5a6 6 0 0 0-6-6zm11.45 25.57c-2.55 0-4.61-2.07-4.61-4.61 0-2.55 2.07-4.61 4.61-4.61s4.61 2.07 4.61 4.61-2.07 4.61-4.61 4.61m15.1 0c-2.55 0-4.61-2.07-4.61-4.61 0-2.55 2.07-4.61 4.61-4.61s4.61 2.07 4.61 4.61-2.07 4.61-4.61 4.61m15.1 0c-2.55 0-4.61-2.07-4.61-4.61 0-2.55 2.07-4.61 4.61-4.61s4.61 2.07 4.61 4.61-2.07 4.61-4.61 4.61"/><path fill="#FF444F" d="M74.87 96.5c11.946 0 21.63-9.684 21.63-21.63s-9.684-21.63-21.63-21.63-21.63 9.684-21.63 21.63S62.924 96.5 74.87 96.5"/><path fill="#fff" d="M87.21 75.26c0-6.81-5.52-12.33-12.33-12.33s-12.33 5.52-12.33 12.33v5.4h4.47l-.62 6.17h3.47V84.9h1.54v1.93h2.7V84.9h1.54v1.93h2.7V84.9h1.54v1.93h3.47l-.62-6.17h4.47zM69.79 77.8c-2.04 0-3.7-1.66-3.7-3.7h7.4c0 2.04-1.66 3.7-3.7 3.7m2.72 3.24 2.36-3.48 2.36 3.48zm7.45-3.24c-2.04 0-3.7-1.66-3.7-3.7h7.4c0 2.04-1.66 3.7-3.7 3.7"/></g><defs><clipPath id="a"><path fill="#fff" d="M.5.5h96v96H.5z"/></clipPath></defs></svg>